<svg version="1.1" xmlns="http://www.w3.org/2000/svg" enable-background="new 0 0 288 288" viewBox="0 0 288 288" x="0px" y="0px" width="288px" height="288px"><style type="text/css">.jqfhw95t {fill: #1A1A1A;}</style><g>	<path class="jqfhw95t" d="M25.7,42.1V25.7c100.1,0,113.3,0,173.5,0c-6.4-3-13.1-5.5-20-7.5c-46.6,0-114.3,0-161,0c0,17.4,0,31.2,0,46.9		c2.3-3.7,4.8-7.3,7.5-10.8C25.7,54.1,25.7,41.6,25.7,42.1z"></path>	<path class="jqfhw95t" d="M262.3,25.7c0,125.7,0,92,0,173.5c3-6.4,5.5-13.1,7.5-20c0-16.8,0-141.6,0-161c-9.8,0-36.2,0-46.9,0		c3.7,2.3,7.3,4.8,10.8,7.5C243.9,25.7,251.5,25.7,262.3,25.7z"></path>	<path class="jqfhw95t" d="M262.3,262.3c-30.4,0-128,0-173.5,0c6.4,3,13.1,5.5,20,7.5h20.3c-1.2,0,14.4,0,140.6,0c0-16.2,0-30.7,0-46.9		c-2.3,3.7-4.8,7.3-7.5,10.8C262.3,243.6,262.3,252.4,262.3,262.3z"></path>	<path class="jqfhw95t" d="M25.7,262.3c0-22,0-151.9,0-173.5c-3,6.4-5.5,13.1-7.5,20c0,29.4,0,131.5,0,161c33.4,0,20.8,0,46.9,0		c-3.7-2.3-7.3-4.8-10.8-7.5C38.3,262.3,41.7,262.3,25.7,262.3z"></path>	<path class="jqfhw95t" d="M68.9,30.9H56.2C4.2,71.4-13.7,141.8,13,202v-22.1C-2.2,124.6,19.1,64.2,68.9,30.9z"></path>	<path class="jqfhw95t" d="M257.1,68.9V56.2C216.6,4.3,146.2-13.7,86,13h22.1C164.5-2.4,224.4,19.9,257.1,68.9z"></path>	<path class="jqfhw95t" d="M275,86v22.1c15.5,56.4-6.9,116.3-55.9,149h12.7C283.8,216.7,301.7,146.2,275,86z"></path>	<path class="jqfhw95t" d="M30.9,219.1v12.7C71.7,284.2,142.3,301.5,202,275h-22.1C123.9,290.3,63.8,268.4,30.9,219.1z"></path></g></svg>