<?xml version="1.0" encoding="utf-8"?>
<!-- Generator: Adobe Illustrator 24.1.2, SVG Export Plug-In . SVG Version: 6.00 Build 0)  -->
<svg version="1.1" id="Layer_1" xmlns="http://www.w3.org/2000/svg" xmlns:xlink="http://www.w3.org/1999/xlink" x="0px" y="0px"
	 viewBox="0 0 54 57" style="enable-background:new 0 0 54 57;" xml:space="preserve">
<style type="text/css">
	.st0{fill:#FFFFFF;}
	.st1{fill:none;stroke:#000000;stroke-width:0.469;stroke-miterlimit:10;}
</style>
<g>
	<path class="st0" d="M7.5,54.5c-2.8,0-5-2.2-5-5v-39c0-2.8,2.2-5,5-5h39c2.8,0,5,2.2,5,5v39c0,2.8-2.2,5-5,5H7.5z"/>
	<path d="M46.5,6C49,6,51,8,51,10.5v39c0,2.5-2,4.5-4.5,4.5h-39C5,54,3,52,3,49.5v-39C3,8,5,6,7.5,6H46.5 M46.5,5h-39
		C4.5,5,2,7.5,2,10.5v39c0,3,2.5,5.5,5.5,5.5h39c3,0,5.5-2.5,5.5-5.5v-39C52,7.5,49.5,5,46.5,5L46.5,5z"/>
</g>
<g>
	<line class="st1" x1="27" y1="5" x2="27" y2="55"/>
</g>
<line class="st1" x1="2" y1="30" x2="52" y2="30"/>
</svg>
