<?xml version="1.0" encoding="utf-8"?>
<!-- Generator: Adobe Illustrator 24.2.1, SVG Export Plug-In . SVG Version: 6.00 Build 0)  -->
<svg version="1.1" id="Layer_1" xmlns="http://www.w3.org/2000/svg" xmlns:xlink="http://www.w3.org/1999/xlink" x="0px" y="0px"
	 viewBox="0 0 133.2 89.3" style="enable-background:new 0 0 133.2 89.3;" xml:space="preserve">
<style type="text/css">
	.st0{fill:#FFD55C;}
	.st1{fill:#FFFFFF;}
	.st2{fill:#F15F5A;}
	.st3{fill:#596874;}
	.st4{opacity:0.1;fill:#010101;}
	.st5{fill:#50BFEE;}
</style>
<g>
	<g>
		<path class="st0" d="M130.8,60.5c0,5.3-4.4,9.6-9.8,9.6H36.6c-5.4,0-9.7-4.3-9.7-9.6V15.7c0-5.3,4.4-9.6,9.7-9.6h84.5
			c5.4,0,9.8,4.3,9.8,9.6V60.5z"/>
		<rect x="41.2" y="46.1" class="st1" width="64" height="9.6"/>
		<path class="st2" d="M124,18.9c0,3.3-2.7,6-6,6c-3.3,0-6-2.7-6-6s2.7-6,6-6C121.3,12.9,124,15.6,124,18.9z"/>
		<path class="st3" d="M114.4,18.9c0,3.3-2.7,6-6,6c-3.3,0-6-2.7-6-6s2.7-6,6-6C111.7,12.9,114.4,15.6,114.4,18.9z"/>
		<path class="st4" d="M105.1,14.1H27c-0.1,0.5-0.2,1.1-0.2,1.6v44.8c0,5.3,4.4,9.6,9.7,9.6h78.1c0.1-0.5,0.2-1.1,0.2-1.6V23.7
			C114.8,18.4,110.5,14.1,105.1,14.1z"/>
	</g>
	<g>
		<path class="st5" d="M106.8,76.5c0,5.3-4.4,9.6-9.7,9.6H12.6c-5.4,0-9.8-4.3-9.8-9.6V31.7c0-5.3,4.4-9.6,9.8-9.6h84.5
			c5.4,0,9.7,4.3,9.7,9.6V76.5z"/>
		<rect x="2.8" y="30.1" class="st3" width="104" height="12"/>
		<rect x="10.8" y="46.9" class="st1" width="52" height="8"/>
		<rect x="74.3" y="67.3" class="st3" width="26" height="12"/>
	</g>
</g>
</svg>
