<?xml version="1.0" encoding="utf-8"?>
<!-- Generator: Adobe Illustrator 24.2.1, SVG Export Plug-In . SVG Version: 6.00 Build 0)  -->
<svg version="1.1" id="Layer_1" xmlns="http://www.w3.org/2000/svg" xmlns:xlink="http://www.w3.org/1999/xlink" x="0px" y="0px"
	 viewBox="0 0 129 75.1" style="enable-background:new 0 0 129 75.1;" xml:space="preserve">
<style type="text/css">
	.st0{fill:#50BFEE;}
	.st1{fill:#596874;}
	.st2{fill:#E9E8E8;}
	.st3{fill:none;stroke:#596874;stroke-width:4;stroke-linecap:round;stroke-miterlimit:10;}
	.st4{fill:#F15F5A;}
	.st5{fill:none;stroke:#50BFEE;stroke-width:4;stroke-linecap:round;stroke-miterlimit:10;}
</style>
<g>
	<path class="st0" d="M126.9,59.3l-0.9-9.6c0-7.7-4.4-7.7-6.5-7.7H94.7v17.3H126.9z"/>
	<path class="st1" d="M110.9,42.3l-2-12.8c-0.6-4-3.8-4.5-6.1-4.5H77.8v17.3H110.9z"/>
	<path class="st2" d="M107.1,39.4l-1.3-8.5c-0.4-2.6-2.6-3-4.1-3H85.2v11.5H107.1z"/>
	<path class="st1" d="M94.9,59.4V7.2c0-2.5-2-4.5-4.5-4.5H19.2c-2.5,0-4.5,2-4.5,4.5v52.3H94.9z"/>
	<line class="st3" x1="10.9" y1="59.4" x2="126.9" y2="59.4"/>
	<path class="st4" d="M67.2,30.1c0,7.1-5.8,12.8-12.8,12.8c-7.1,0-12.8-5.7-12.8-12.8c0-7.1,5.8-12.8,12.8-12.8
		C61.5,17.3,67.2,23,67.2,30.1z"/>
	<g>
		<line class="st5" x1="2.9" y1="43.6" x2="37.1" y2="43.6"/>
		<line class="st5" x1="11.7" y1="31.6" x2="45.9" y2="31.6"/>
		<line class="st5" x1="4.6" y1="19.6" x2="38.9" y2="19.6"/>
	</g>
	<path class="st4" d="M126.5,48.1c0.4,1.1,0.2,2.2-0.6,2.5c-0.8,0.3-1.7-0.3-2.2-1.4c-0.4-1.1-0.2-2.2,0.6-2.5
		C125.1,46.3,126.1,47,126.5,48.1z"/>
	<g>
		<path class="st2" d="M96.7,62.4c0-6.6,5.8-12,12.9-12c7.1,0,12.9,5.4,12.9,12H96.7z"/>
		<path class="st1" d="M118.6,63.7c0,5-4,9-9,9c-5,0-9-4-9-9c0-5,4-9,9-9C114.6,54.7,118.6,58.7,118.6,63.7z"/>
		<path class="st2" d="M114.6,63.9c0,2.8-2.2,5-5,5c-2.8,0-5-2.2-5-5c0-2.8,2.2-5,5-5C112.4,58.9,114.6,61.1,114.6,63.9z"/>
	</g>
	<g>
		<path class="st2" d="M25.1,62.9c0-6.6,5.8-12,12.9-12c7.1,0,12.9,5.4,12.9,12H25.1z"/>
		<path class="st1" d="M47,64.1c0,5-4,9-9,9s-9-4-9-9c0-5,4-9,9-9S47,59.1,47,64.1z"/>
		<path class="st2" d="M43,64.3c0,2.8-2.2,5-5,5s-5-2.2-5-5c0-2.8,2.2-5,5-5S43,61.5,43,64.3z"/>
	</g>
	<line class="st3" x1="101.9" y1="46.9" x2="106.9" y2="46.9"/>
</g>
</svg>
