<?xml version="1.0" encoding="utf-8"?>
<!-- Generator: Adobe Illustrator 24.2.1, SVG Export Plug-In . SVG Version: 6.00 Build 0)  -->
<svg version="1.1"
	 id="Layer_1" mapsvg:geoViewBox="44.032695 39.782056 63.333337 24.809394" xmlns:dc="http://purl.org/dc/elements/1.1/" xmlns:mapsvg="http://mapsvg.com" xmlns:rdf="http://www.w3.org/1999/02/22-rdf-syntax-ns#" xmlns:svg="http://www.w3.org/2000/svg"
	 xmlns="http://www.w3.org/2000/svg" xmlns:xlink="http://www.w3.org/1999/xlink" x="0px" y="0px" viewBox="0 0 654.5 593.7"
	 style="enable-background:new 0 0 654.5 593.7;" xml:space="preserve">
<style type="text/css">
	.st0{fill:#CDCFD0;stroke:#7B7C7F;stroke-miterlimit:10;}
	.st1{fill:#FFFFFF;stroke:#000000;stroke-miterlimit:10;}
</style>
<path id="IR-32" class="st0" d="M230.1,148.8L230.1,148.8l5.6,1.1l2.2,0.9l0.6,0.9l1.3,1.2l1.4,0.6l5.6,1.2l2.2,2.6l-0.1,1.8v2.4
	l-1.9,1.2l-2.7-0.3l-2.7,1l-2.1,2.4l-0.1,2.7l-0.4,2l-3,0.2l-1,2.5l-1.8,2.2l-2.2,1.4l-0.9,2.1l-1.6,0.1l-0.9,1.9l-1,0.2l-0.2-1.4
	l0-2.3l-1.3-1.6l-1.9,0l-0.4,1.1l1.3,1.8v0.7l-0.4,0.6l-0.9-0.5l-1.9-1.8l-3.3-1l-3.4-0.2l-1.5-0.3l-0.7-1.2L211,173l-0.3-1.3
	l0.4-1.6l1.9-1.8l6.9-3.4l1.2-1.1l0.4-1.5l1.6-3.4l1.1-3.6l-1.6-1.4l-2.4-0.7l-1.3-1.1l-1.7-2.4l1-1.5l3.8-0.3L230.1,148.8
	L230.1,148.8z"/>
<path id="IR-15" class="st0" d="M468.3,340.1L468.3,340.1l38.5,17.4l4.9,3.6l13.5,19.7l-7,32.3l-0.3,3.2l0.8,0.9l1.5,1l1.3,3.4
	l1.2,8.2l-0.1,3.4l-1,3.8l-2.8,4.3l-0.5,2.5l0.5,2.6l0,3.2l1,2.1l0.3,1.5l-0.1,1.4l-1,1.1l-1.5,1.2l-7.9,4.6l-3.9,1.3l-2,1l1.3,2
	l2.8,2.1l1.2,2l-1,3.5l-3.9,5.1l0.2,13.3l-0.5,4.4l-3.9,15.3l0,3.8l0.8,3.2l0.1,1.4l-0.1,2.4l0.7,2.6l2.6,3l1.8,3.6l-1,2.9l-1,1.6
	l0.5,0.9l1.1,1l0,1.3l-1.1,1.3l-0.8,1.7l0.6,2.2l1.2,1.4l0.3,1.5l-0.5,1.5l-0.6,0.8l0.1,1.2l-0.5,0.6l-0.4,1l0,2.3l-0.2,1.4
	l-0.7,1.7l-1.4-2.1l-0.5-0.4l-0.9,0l-1.3-0.5l-1,0.3l-1,1l-1.5,0.2l-1.7-0.1l-1.4-0.3l-0.6-1l-0.1-1.2l-0.3-0.8l-0.1-0.7l0.3-0.7
	l0-0.4l-0.6-0.4l-2.1-0.3l-1.3-0.6l-1.2-0.3l-1.2,0.5l-1.8,0.2l-2.8-0.5l-4.5,0.3l-0.1-0.8l0.7-0.8l0.4-2.1v-1.1l-0.2-1.1l0.8-7.4
	l0.5-1.2l0.6-0.8l0.2-0.6l0-1l-0.8-2.4l0-0.8l0.7,0l2.1,1.3l0.3-0.7l-1-2.1l-2-2.3L476,524l-2.3-1.4l-2.2-0.1l-1.4,1l-0.8,1.1
	l-1.6,1.5l-1-0.3l-2.3-1.7l-10.5-5.6l-0.7-2.2l-1.1-14.3l-1-3l-0.9-1.9l-0.9-0.5l-0.8-1.1l0.6-1.2l0.9-0.8l-0.2-1.9l-1.5-2.3
	l-1.5-1.7l-0.8-1.5l-1.4-1.8l-1.8-1l-1-0.1l-0.7-0.6l-0.5-0.8l-1.2-6l0.3-3.9l-0.3-0.6l-3.5-1.7l-1.8-0.1l-1.6,1.2l-1,1.3l-3.7,3.5
	l-4,2l-2.2,0.4l-4-0.6l-3.5-2.1l-2.9-2.7l-3-3.9l-0.7-3.8l0.8-2.9l-0.6-14.7l-1-1.4l-1,0.1l-4,1.9l-6.8,5.1l-1.7,0.5l-1.5-0.8
	l-1.5-1l-1.5-1.9l-3-2.4l-6.1-1.7l-2.9-0.2l-6.9-17l-2-0.8l-7.8-0.7l-1.5-1l-0.8-0.8l-0.7-1.3l-0.4-1.5l-2.8-5.7l-0.9-3.1l0-0.8
	l1.5-0.7l0.3-0.3l3.4-0.4l1.1-0.8l0-1.1l-0.5-1.6l-0.4-2.2l0.4-12.7l-1.1-0.8l-1.1-1.3l-0.8-3.9l-2-5.3l-1.9-3.6l-0.1-2l0.8-2.9
	l1.6-3l3-3.3l19-3.4l4.3,0.2l2.8,0.6l6.4-0.9l5.7-2.5l0.5-2.8l0.4-12.5l1.5-3.2l18-9.5l2.4-2.5l7-4l1.6-1.7l0.7-1.1l4.3,0.8
	L468.3,340.1L468.3,340.1z"/>
<path id="IR-13" class="st0" d="M596,350L596,350l1.9,0.3l0.9,0.4l0.7,0.5l1.2,1.5l0.2,0.7l-0.2,1.7l0,0.8l0.3,0.8l0.9,1.5l0.3,0.9
	l0,1.2l0.1,0.4l0.6,1.3l0.4,1.3l0.2,0.8v0.8l-0.2,0.8l-0.7,1.3l0.2,0.5l0.1,2.7l-0.2,0.1l-0.1,0.3l0,0.7l0,0l0.1,0.2l-0.6,0.6
	l-2.8,3.4l-4.3,5.2l-3.9,4.7l0,0l-2.8,3.3l-3.7,4.4l-1.9,2.3l-2.8,3.4l-5.2,6.3l0,0l-2.6,3l-2,2.3l2.7,3.2l1.8,2.1l2.2,2.6l2.5,3.1
	l2.7,3.2l2.8,3.3l0.7,0.5l0.7,0.3l0.6,0.4l0.3,1l-0.1,0.8l-0.4,1.4v0.8l0.3,0.8l1.1,1.2l0.4,0.7l0.1,0.4l0.1,1l0.2,0.4l0.4,0.4
	l0.3,0.1l0.3,0l0.4,0.2l0.3,0.5l0.2,0.7l0.3,0.6l0.6,0.3l0.3,0.3l0.1,0.3l-0.1,0.4l-0.3,0.3l-0.2,0.3l-0.1,0.2l0.1,0.2l0.3,0.2
	l0.4,0.2l0.4,0.3l0.3,0.4l1.4,3.3l0.2,0.8l0.1,0.6l0.2,0.6l1,1.1l1,2.1l1,1.2l3.5,3.2l1.4,1.8l2.2,2l1.1,1.2l0.6,0.3l2,0.6l1.6,0.9
	l1,0.3l2.3,0.2l1.1,0.2l2.8,1.3l4.5,0.9l0.9,0.5l0.4,0.5l0.3,0.5l0.3,0.5l0.5,0.3l0.6,0.2l0.3,0.2l0.2,0.4l0.2,0.7l0.5,0.8l2.1,2.3
	l0.7,0.4l5.5-1.1l0.8,0.5l0.2,1.3l-0.5,4l-0.5,4.4l0.6,2.6l0.9,3.7l0.2,2.3l0.3,3.1l0.2,1.9l0.3,3.5l0.2,2l-0.2,1.6l-1.8,4l0.7,0.8
	l0.2,0.4l-0.1,0.6l-0.2,0.5l-0.2,0.4l-0.3,0.3l-0.5,0l1.5,1.3l0.5,0.3h0.3l0.5-0.3l0.2,0l0.3,0.1l0.8,0.4l1.1,0.2l0.9,0l2-0.4
	l0.9-0.1l1.8-0.5l0.9,0l0.6,0.1l0.4,0l1.8-0.6l0.3,0l0.4,0.1l0.9,0.8l0.4,0.2l0.8,0.3l0.3,0.2l0.4,0.4l0.5,0.7l1.2,2.6l-0.6-0.2
	h-0.7l-0.7,0.3l-0.4,0.6l-0.1,0.4l-0.4,0.5l-0.1,0.4l0,0.4l0.2,4.3l0.3,0.7l0.4,0.6l0.3,0.6l-0.1,0.7l-0.5,0.5l-1.4,0.2l-0.6,0.3
	l-0.2,0.6l-0.3,5.5l-0.4,1.5l-0.8,0.7l-0.3,0l-0.3-0.1l-0.2-0.2l-0.3-0.1l-0.3,0l-1,0.2l-1.3,0l-1.3-0.2l-3.1-0.1l-2.7-0.1l-2.3-0.1
	l-0.4,0.1l-0.3,0.3l-0.3,0.6l-0.2,0.2l-0.3,0.1l-0.3,0.1l-1,0.2l-0.3,0l-0.4-0.2l-0.4-0.1l-0.3,0.2l-0.3,0.3l-0.3,0.2l-0.7,0.3
	l-5.7,0.6l-0.3,0.1l-0.3,0.2l-0.3,0.5l-0.2,0.2l-0.3,0.1l-0.7,0l-0.3,0l-0.3,0.1l-0.4,0.3l-0.3,0.2l-0.7,0.3l-0.3,0.2l-0.2,0.3
	l-0.1,0.3l0.1,0.3l0.1,0.2l0,0.2l-0.3,0.7l-1.1,1l-0.2,0.5l0.2,0.9l0.3,0.7l0,0.5l-0.7,0.4l-1.3-0.2l-1.5-0.5l-1.3-0.2l-0.6,0.9
	l-0.1,0.9l-0.3,0.4l-1.4,0.2l-0.7,0.2l-0.6,0.3l-1.2,0.8l-4.1,1.2l-0.8,0.6l-0.5,1l-0.3,1.2l-0.3,2.3l-0.3,2l-0.3,2.3l-0.4,3.1
	l-0.4,2.6l-0.2,0.7l-0.5,0.6l-0.6,0.1l-0.7,0l-0.7,0.2l-0.7,1l0.2,1.4l0.4,1.5l-0.1,1.3l-0.2,0.3l-0.5,0.5l-0.2,0.4l-0.1,0.5
	l-0.1,2.2l-0.2,3.2l-0.2,3.7l-0.2,3.2l-1.1,3.1h0l-0.2-0.5l-0.1-0.6l-0.6-0.4l-0.1-0.2l-0.2-0.1l-0.3,0.2l-0.1,0.2l0,0.6l-0.1,0.2
	l0.2,0.2l0.3,0.4l0.2,0.2l-0.7-0.1l-0.5-0.2l-0.6,0l-0.7,0.6l0.8,0.3l0.3,0.2l0.3,0.3l-0.2,0.4l-0.5,0.7l-0.2,0.4v0.2l0,0.2
	l-0.3,0.3l-0.5,0.3l-1.8,0.5l0.5,0.3l-0.8,1.1l-5.7-2l-2-0.4l0-0.6l-0.5-0.9l-4.7-1.7l-5.5-0.9l-4.7-1.1l-3.2-0.4l-0.6-0.3l0.5-0.5
	l-0.8-1.2l-0.1-0.5l0-2.1l-0.1-0.3l-1.2-1.2l-0.5-0.3l-0.6-0.1l-0.6,0.1l-2.3,0.7l-0.6,0.3l-0.3,0.5l-0.5,0.6l-0.3,0.4v0.3l0.1,0.2
	l0.1,0.8l0.2,0.1l0.2,0l0.4,0.2l0.3,0l0.1,0.1l0.1,0.2l0.3,0.4l-0.4-0.1v0.1l1,0.5l-0.1,0.5l-0.4-0.1l-1.1-0.5l-1.4-0.6l-0.7-0.4
	l-1.5,0l-1-0.8l0.3-0.6l0.1-0.2l-0.5-0.2l-0.6-0.1l-1.2,0.1l-0.9,0.2l-0.2,0.1l-0.3,0.3v0.2l0.1,0.2l0.7,0.5l-0.2,0.7l-0.9,0
	l-0.7-0.5l-0.4-0.1l-1.2-0.2l-0.3-0.2l-0.4-0.5l-0.5-0.3l-1.3,0.1l-1.7,0.3l-1.8,0.1l-1.3,0.9l-1.4-0.5l-1.4-1.4L534,581l-3.9,0.2
	l-1.5,0l-2.6-0.6l-1.6-1.6l-1.2-0.7l-1.9,0.4l-4,0.6l-1,0.2l-0.2-0.9l0.9-0.4l0-0.6l0.1-0.6l-0.6-0.3l-0.3-0.4l-1.2-2l-0.6-0.6
	l-0.5-0.6l-0.2-0.8l-0.5-0.7l-1-0.4l-0.8-0.8l-0.2-1.4l-1.1-1.8l-6.4-5.7l-1.2-0.8l-0.5-0.2l-0.1-0.7l0.2-1.2l0.6-0.9l0.4-0.2
	l0.7-1.7l0.2-1.4l0-2.3l0.4-1l0.5-0.6l-0.1-1.2l0.6-0.8l0.5-1.5l-0.3-1.5l-1.2-1.4l-0.6-2.2l0.8-1.7l1.1-1.3l0-1.3l-1.1-1l-0.5-0.9
	l1-1.6l1-2.9l-1.8-3.6l-2.6-3l-0.7-2.6l0.1-2.4l-0.1-1.4l-0.8-3.2l0-3.8l3.9-15.3l0.5-4.4l-0.2-13.3l3.9-5.1l1-3.5l-1.2-2l-2.8-2.1
	l-1.3-2l2-1l3.9-1.3l7.9-4.6l1.5-1.2l1-1.1l0.1-1.4l-0.3-1.5l-1-2.1l0-3.2l-0.5-2.6l0.5-2.5l2.8-4.3l1-3.8l0.1-3.4l-1.2-8.2
	l-1.3-3.4l-1.5-1l-0.8-0.9l0.3-3.2l7-32.3l1.1-0.5l25.4-7.2l1.8,0.3l1.2,1.3l0.8,0.6l3.1,0.9l4.2,3.1l5.3,7.6l2.8,2.4l4.6-0.2
	l1.2-0.5l0.5-0.8l0.1-1.2l-1.7-7.6l-0.1-3l0.7-10.3l1.6-5.8l2.2-5.2l0.5-4.8l-0.6-2.3l5.8,0.9l6.6,1L596,350L596,350z"/>
<path id="IR-31" class="st0" d="M456.8,80.7L456.8,80.7l0.5-0.1l0.5-0.2l0.6-0.1l0.6,0.1l1.7,0.5l1.6,0l0.5-0.1h0.5l0.5,0.3l0.4,0.4
	l0.4,0.3l0.2,0l-4.1,2.5l-1.3,1.3l0,1.9l-0.4,1.6l-0.5,1.5l1.3,0.9l15.2,0.7l0.6,0.8l0.4,1.5l0.8,1.8l3.1,2.9l0.9,1.9l0.2,1.7
	l-0.8,1.4l-0.9,1.1l-0.3,0.7l0,0.8l-0.3,1.3l-1.2,1.7l-2,6l-1.4,1.7l0.2,1.5l1.7,1.2l0.9,1l0.6,1.2l0.9-0.1l0.5-1.3l0.4-0.2l0.3,1.1
	l0.7,1l1.1,0.5l0.1,1l-2,2.2l-0.2,1.2l0.4,0.7l1.2,0.7l0.3,1.3l-1.1,3.3l-1.3,1.2l-2.6,0.6l-9.4-1.4l-22.4-12.5l-5.4-0.3L431,128
	l-2,2.6l-0.3,1.9l0.3,1.5l-0.1,1.1l-5.2,0.9l-1.7-0.6l-3.2-0.6l-1.9-0.6l-3.9-3.3l-4-4.5l-0.6-1.3l0.1-0.8l0.6-2.5l0.2-2.9l-0.2-1.1
	l-0.2-0.4l-0.2-0.3l0.2-0.6l0.9-0.7l2-0.6l0.4-1l-1.6-0.7l-1.3,0.2l-2.4-1.7l-5.1-6.8l1-1l2.5-4.4l2.5-1l1-0.9l1-0.5l0.9-0.1l4-1.4
	l1.9-2.6l-0.6-2.6l-1.4-1.1l-1.6-0.8l-1.1-1.4l-0.1-1.9l0.7-2.8l0-1l-0.4-1.8l-0.1-1.6l0.2-1.2l-0.2-3l1,0.4l0.5,0.1l2.9-0.5
	l0.5-0.4l0.3-0.7l0.1-0.8l-0.2-0.8l-0.9-1.1l0.2-0.6l2.1-2l1.1-0.8l1.2-0.5l3.1-0.1l0.6,0.1l0.5,0.3l0.4,0.3l0.5,0.2l0.5-0.1
	l2.7-1.2l1.6-0.3l0.3,0.1l1.3,1.1l1.2,0.7l0.5,0.2l5.1,1l1.4,0.6l0.7,0.1l0.6-0.3l0.5-0.4l1.1-0.7l0.4-0.4l0.7-1.2l0.1-0.1l0.3-0.3
	l0.6-0.3l0.4-0.1l0.4,0.1l0.7,0.2l0.4,0.3l0.1,0.3l0,0.3l0.1,0.4l0.8,1.3l0.6,1.5l0.4,0.6l1.1,1.2l0.4,1.3l0.7,1l0.2,0.8l-0.1,0.7
	l-0.7,2.3l0.9,1.2L456.8,80.7L456.8,80.7z"/>
<path id="IR-30" class="st0" d="M467.1,83L467.1,83l0.5,0l0.6-0.1l0.5-0.1l1.2,0.3l5.3,2.6l2.2,0.5l1.1,0.1l0.5,0.1l0.6,0.3L480,87
	l0,0.3l-0.1,0.3l0,0.3l0.5,1l0.1,0.3l0.1,0.8l0,0.6l0.2,0.5l0.6,0.5l0.6,0.2l2.6,0.4l0.4,0.2l0.9,0.6l0.5,0.1l3.1-0.3l0.6-0.3
	l0.5-0.7l0.3-0.7l0.4-0.6l0.5-0.4l0.7-0.1l0.6,0.3l1.7,1.5l1.5,0.6l0.8,0.1l0.8-0.1l0.3-0.2l0.2-0.3l0.2-0.2h0.4l0.7,0.1l0.4,0
	l0.4-0.1l0.5-0.6l0.1-0.6l0.2-0.3l2,1.1l2.6,0.6l1.3,0.6l0.5,0.3l0.5,0.2l1,0.2l0.4,0.2l1.1,1.2l4.5,3.3l0.7,0.1l1.9-0.9l0.8,0.2
	l0.7,0.7l0.7,0.9l0.2,0.6l-0.1,0.9l0.2,0.5l0.1,0.4l-0.1,0.4l-0.2,0.4l-0.1,0.5l0.1,0.9l0.7,2.9l0.4,0.6l2.1,1.8l0.6,0.7l0.2,0.3
	l0,0.2l-0.1,0.1l0,0.1l0,0.3l-0.1,0.3l0.1,0.3l0.6,0.2l0.2,0.2l0.3,0.2l0.3,0.1l0.3,0l1.1-0.4l0.5,0.1l0.6,0.6l0.2,0.7l0.2,0.8
	l0.2,0.7l0.5,0.4l0.3-0.1l0.2-0.3l0.4-0.6l0.3-0.2l0.4,0l4.9,1.6l2.2,1.9l1.3,0.7l2.8,0.5l1.3,0.6l1,1.3l1.3,2.7l1.6,2.4l3.6,4.4
	l0.7,1.1l1,2.6l0.7,1.2l1.1,0.6l5.4-0.1l4.7-0.1l7.2-0.1l4-0.1l3.5-0.1l1.7,0.3l1.4,0.2l0.3,1.4l0.3,0.6l0.1,0.4l0.1,0.5l0,0.5
	l-0.1,0.5l-0.2,0.4l-0.2,0.3l-0.1,0.4l0,0.5l0.2,0.6l-0.7,3.4l-0.2,2.1l0.5,1.2l-0.1,0.2l-0.1,0.1l-0.1,0.3l0.3,0.1l0.3,0.2l0.2,0.3
	l0.1,0.3l0.1,0.4l0.1,0.4l0,1l0.1,0.4l0.5,0.8l0.5,2.6l0.1,1.3l0,0.2l-0.1,0.3l-0.4,0.5l-0.2,0.3l-0.1,0.4l-0.1,0.4l0,0.4l-0.1,0.4
	l-0.3,0.2l-0.3,0.1l-0.2,0.2l-0.1,0.5l0.1,0.8l0,0.4l-0.4,0.4l-0.7,0.6l-0.4,0.5l0.5,0.2l0.8,0.1l0.7,0.4l0.6,0.6l0.5,0.7l0.3,0.6
	l0.3,0.7l0.2,0.7l0.2,1.5l0.1,0.6l0,0.7l-0.2,0.9l0.2,0.3v0.4l-0.2,1l0,0.2l0,0.7l-0.1,0.3l-0.5,0.5l-0.1,0.3l0.1,1.1l0.5,0.9
	l0.8,1.3l0.2,0.4l0.4,1.7l0.1,0.8l-0.2,0.9l-0.5,0.8l-0.8,1l-0.4,0.8l-0.3,1.3l-0.2,0.4l-0.7,1l-0.2,0.5l-0.2,0.9l0.2,2.1l-0.3,0.7
	l-0.7,0.4l-0.8,0.1l-0.7,0l-0.5,0.4l-0.2,0.9l0,0.9l0,0.4l0.2,0.2l0.2,0.4l0,0.4l-0.3,0.2l-0.2,0.2l0.2,0.4l1.2,1.6l0.1,0.2
	l-0.1,0.5l-0.1,0.4l0.1,0.3l0.3,0.4l-0.8,1.2l-0.2,0.6l-0.2,1.7l-0.5,1.6l-0.1,0.8l-0.1,0.4l-0.5,0.8l-0.1,0.5l0,0.4l0.2,0.8l0,0.4
	l-0.2,1.4l-0.3,1.4l-1,0.3l-0.2,0.7l-0.7,1.2l-1.1,0.8l-0.6,0.7l0,1l0.1,1.1l-0.1,1l-0.3,0.5l-0.4,0.1l-0.4,0l-0.5,0.1l-0.5,0.3
	l-0.2,0.3l-0.2,0.3l-1.5,1.8l-0.7,0.4l-0.8,0.2l-1.9,0.3l-0.8,0.4l-0.5,0.9l0.4,0.1l0.3,0.2l0.2,0.3l0.3,1l0.3,0.3l0.8,0.4l0.4,0.4
	l0.3,0.5l0.5,1.1l2.5,3.3l0.4,0.8l-2.5,0.1l-3.4,0.2l-2.4,0.1l0.2,0.9l-0.5,0.6l-1.6,0.9l-1.2,1.2l-1.1,1.4l-1,1.9l-0.2,1.8l0.1,0.6
	h0l-2.6,0.4l-21.1,0.1l-4.5-1.6l-3.3-5.4l-1.8-1.6l-3.5,1.3l-3.1,1.8l-10,1.5l-1,1.1l-0.9,0.7l-3.5-1.1l-5.4-0.7l-1.8,0.7l-0.5,1.2
	l0.2,1.1l1.3,2.1l-0.3,2.7l-0.7,3l0.4,1.8l-0.1,1.6l-0.9,2.1l-0.5,2.3l0.2,1.7l1,0.9l0.8,0.6l0.4,1l0.3,1.2l5.1,3.8l-1,1.9l-0.2,1.2
	l-1.7,2.7l-1.5,1.5l-10.6,7.1l-4.7,7.1l-1.1,4.8l-1.5,2.5l-0.9,1L478,295l-2.7-4.3l-2.9-1.8l-2.2-1l-0.8-0.6l-2.9-1.6l-2.2-5
	l-2.5-17.1l-1.3-2.6L459,259l-8.7,2l-6.7-0.8l-1.6-2.5l-2.1-11.8l0.3-6.9l4.3-12.9l2.3-4.2l13.4-9.5l3.3-3.2l0.5-2.6l-1.2-2.6
	l-9.9-7.6l-3.8-1l-8.5,2.2l-13.5,6.4l-13.8,3.6l5.4-6.8l4.4-4l3.9-2.3l7.1-2.7l1-0.8l1.4-3.4l5.9-10.1l0.5-2.9l-2.2-2.6l-8-6.6
	l-0.9-2.4l-1.1-5.1l-0.6-7.9l0.5-4.6l1.4-2.6l0.9-3.9l-0.8-3.3l-1.4-0.8l-1.1,0l-0.7,0.2l0.1-1.1l-0.3-1.5l0.3-1.9l2-2.6l8.2-6.6
	l5.4,0.3l22.4,12.5l9.4,1.4l2.6-0.6l1.3-1.2l1.1-3.3l-0.3-1.3l-1.2-0.7l-0.4-0.7l0.2-1.2l2-2.2l-0.1-1l-1.1-0.5l-0.7-1l-0.3-1.1
	l-0.4,0.2l-0.5,1.3l-0.9,0.1l-0.6-1.2l-0.9-1l-1.7-1.2l-0.2-1.5l1.4-1.7l2-6l1.2-1.7l0.3-1.3l0-0.8l0.3-0.7l0.9-1.1l0.8-1.4
	l-0.2-1.7l-0.9-1.9l-3.1-2.9l-0.8-1.8l-0.4-1.5l-0.6-0.8l-15.2-0.7l-1.3-0.9l0.5-1.5l0.4-1.6l0-1.9l1.3-1.3l4.1-2.5l0.1,0l0.5-0.1
	l0.3,0.1l0.2,0.2l0.3,0.7l0.2,0.3L467.1,83L467.1,83z"/>
<path id="IR-29" class="st0" d="M534.4,242.1L534.4,242.1l21.1-0.1l2.6-0.4h0l0.4,3.5l1,6.2l-0.1,1.6l-1,2.4l-0.3,1.3l0.8,3l2.1,2
	l2.7,1.1l2.7,0.2l2.5-0.1l1.3,0.1l1.1,0.3l0.5,0.3l0.6,0.5l0.3,0.6l0,0.1l-0.3,0.5l-0.5,0.2l-1.6,0.1l-0.6,0.4l-0.1,0.6l0.1,0.7
	l0.1,0.7l-0.2,0.8l-0.4,0.5l-1.1,0.7l-1,0.9l-1.3,1.8l-1.7,2.2l-1.8,2.5l-1.6,2.2l-0.2,0.6l0,3.2l0.5,2.6l1,3.3l1.1,3.9l1.2,4
	l1.3,4.2l1.4,4.6l1.5,5.6l1.2,4.3l-0.1,3.3l-0.5,3.2l-0.2,0.7l-0.9,1.1l-0.3,0.6l0.1,0.2l0.3,0.2l0.2,0.2l-0.3,0.9l0.1,0.4l0.2,0.4
	l0.1,0.4l0.1,0.9l-0.3,2.5l0.1,1.9l0.5,3.7l-0.4,2.9l0.1,0.9l0.5,1.9l0.4,3.7l1.1,0.5l3.4,0.5l5.7,0.8h0l0.6,2.3l-0.5,4.8l-2.2,5.2
	l-1.6,5.8l-0.7,10.3l0.1,3l1.7,7.6l-0.1,1.2l-0.5,0.8l-1.2,0.5l-4.6,0.2l-2.8-2.4l-5.3-7.6l-4.2-3.1l-3.1-0.9l-0.8-0.6l-1.2-1.3
	l-1.8-0.3l-25.4,7.2l-1.1,0.5l-13.5-19.7l-4.9-3.6l-38.5-17.4l0.5-0.8l1.8-4.6l3.5-5.4l1.3-3.5l4.5-6l0.6-1.9l0.3-2l0.8-2.2l0.1-2.2
	l-1.4-2.3l-1-2.3l-0.1-1.2l-1-1.1l-0.5-0.9l-0.2-0.9l0.6-1.4l0.9-1.5l0.3-1.3l-0.2-3.1l0.9-1l1.5-2.5l1.1-4.8l4.7-7.1l10.6-7.1
	l1.5-1.5l1.7-2.7l0.2-1.2l1-1.9l-5.1-3.8l-0.3-1.2l-0.4-1l-0.8-0.6l-1-0.9l-0.2-1.7l0.5-2.3l0.9-2.1l0.1-1.6l-0.4-1.8l0.7-3l0.3-2.7
	l-1.3-2.1l-0.2-1.1l0.5-1.2l1.8-0.7l5.4,0.7l3.5,1.1l0.9-0.7l1-1.1l10-1.5l3.1-1.8l3.5-1.3l1.8,1.6l3.3,5.4L534.4,242.1L534.4,242.1
	z"/>
<path id="IR-16" class="st0" d="M142.9,175.1L142.9,175.1l-5-2.7l-1.2,0.3l0.6,1.7l1,1.3l0.4,0.9l0,1.1l-2.4,0.8l-1,0.9l-1.1,0.5
	l-1.1-0.3l-1.6-3.3l-0.8,0.1l-1.8,2l-0.5,1.1l2.4,3.5l3.6,8.2l1.7,2l1.4,0.9l1.9,1.9l0.9,3.8l-0.7,3.1l-1.2,1.9l-1.1,1l-0.7-0.4
	l-1.1-2.7l-0.6,0.2l-0.4,1.2l-1.2,0.7l-2.1,0.6l-1,0.6l-1.1,0l-1.5-0.2l-5.2-5.9l-3.9-1.8l-1.3-1.1l-1-0.1l-0.4,0.8l0.6,1.2
	l-0.1,1.4l-1.2,1.1l-4.8,0.3l-0.3,0.8l-0.2,2.7l-0.7,0.4l-1.3-0.1l-2.1,0.2l-2,2.1l-1.4,0.5l-0.4,0.9v1.2l-0.7,0.8l-1.1,0.2
	l-0.7,0.9l-0.2,1.4l-1.3,0.7l-2.3,0.3l-3.1-0.4l-2,0.2l-1.1-1.2l0-1.6l0.3-1.2l-0.1-0.9l-0.8,0.1l-1.4-1l-8.1-11.1l-6.4-5.1
	l-0.9-0.3l0.1-0.2l-0.3-1.2l-0.8-0.9l-1.9-1.7l-2.2-3.5l-0.4-1.2l0-0.4l0.1-0.3l0.2-0.3l0.3-0.2l0.1-0.2l0.1-0.2l-0.1-0.2l-0.1-0.2
	l-0.4-0.8l-0.3-0.9l0.2,0h0.2l1,0.3l0.1-0.6l-0.3-1.6v-0.7l0.1-0.7l0.3-0.7l0.4-0.5l0.7-0.3l2.4,0.1l0.7-0.2l1.7-0.9l1.3,0.1
	l0.7-0.1l0.5-0.5l0.5-0.7l1-0.7l0.5-0.5l0.4-0.7l0.1-0.6l-0.3-0.6l-0.6-0.4l-0.7-0.1l-0.6,0.3l-0.6,0.4l-0.7,0.2l-1.4,0.3l-0.7,0
	l-0.7-0.3l-0.3-0.2l-0.2-0.2l-0.1-0.3l-0.2-0.9l-0.2-0.1l-0.3,0l-1-0.4l-0.6,0l-0.6,0.2l-0.7,0.4l-0.7,0.2l-2.2-0.1l-1.1,0.4l-0.3,0
	l-0.3-0.1l-0.3,0l-0.8,0.7l-0.7,0.3l-0.7,0.1l-0.5-0.4l-0.4-0.1l-1.3,0.4l-0.6-0.2l-0.4-0.6l-0.9-2.2l-1.6-2.2l-1-0.9l-0.9-0.2
	l-0.4-0.3l-1.3-1.2l-1.3-0.5l0,0l0,0l1.1-0.7l1.3-1.3l0.6-1.4l1.9-2.1l0.5-2l0.8-0.8l0.4-0.7l1-1.1l5.5-1.8l1.6-2.5l0.1-2l0.8-1
	l3-1.2l8.5,1.2l17.5-1.6l0.4,0.3l0.2,0.5l0.5,0.6l0.7,0.6l0.6,0.6l1.3,0.9l3.5,1l3.8,0.3l2.6-1.1l1.4-1.7l0.6-1.2l0.2-0.7l-0.2-0.7
	l0.1-0.8l1-0.6l0.8-0.3l1,1l17.1,3.4l0.1,0.2l1.1,1.2l0.2,0.4l0.1,0.8l0.3,0.9l0.4,0.8l0.3,0.5l-0.4,0.3l-0.1,0.4l0.2,1l-0.1,0.3
	l-0.1,0.3l-0.1,0.3l0,0.3l0.1,0.1l0.6,0.1l0.6,2.4v4.3l-0.8,3.1l-1.3,1.4l-0.6,1.5l0.5,1.1l9.3,5.7l0.6,0.6l0.7,1.1L142.9,175.1
	L142.9,175.1z"/>
<path id="IR-19" class="st0" d="M164.8,58.6L164.8,58.6l0.1,3.8l-0.4,1.3l0.2,0.9l0.1,2.3l0.6,1.6l0.5,5.3l1.4,5l-0.3,0.8l0,1
	l0.1,0.9l0.3,0.7l1.2,1.9l0,0.4l-0.1,0.4l-0.1,0.3l0.4,1.7l0.7,1.6l1.7,2.6l2.3,2.4l2.5,1.8l5.5,2.8l2.5,0.8l13,1.8l1.4-0.2l1.2-0.5
	l1.1-0.2l1.2,0.6l-0.3,0.1l-0.4-0.1l-0.2,0l-0.3,0.3l2.8,1.1l4.4,1l1.6,0.6l1.1,1l-0.1,1.5l0.3,0.6l0.4,1.5l0.3,0.6l0.5,0.8l0.8,2.3
	l1,1.7l1.2,1.1l2.4,1.8l1.7,2l0.5,0.3l0.7,0.2l2.1,1.4l0,0l0,0.1l-0.3,1.1l-1.2,1.6l-1.8,0.9l-1.4,1.3l-0.7,3.5l-2.1,3.7l-1.8,1.1
	l-4.6-0.5l-2.8,0.6l-0.8,0.4l-0.7,0.2l-6.4,3.5l-1.7,0.3l-3.1-0.6l-0.7-0.5l-1-0.2l-1.7,0.1l-4.6-1.4L183,134l-1.9-2.4l-0.4-1.4
	l-0.1-0.7l-3.2-1.6l-2-7l-1.4-2.3l-3.8-4l-5.1-3.3l-0.4-1.1l-0.3-2.2l0.1-1.9l0-1.2l-1.1-1.4l-2.2-1.7l-1.9-1.9l-5.6-8.9l-3.1-8.6
	l0.1-2.3l1.1-1.7l0.3-2.3l0.7-1.7l7.6-9.1l0.3-0.8l-0.5-0.6l-1.3-0.3l-0.8-0.3l-0.2-0.8l-0.7-0.9l-1.1-1l-0.2-0.5l1.6,0.1l0.8-0.2
	l0.9-0.4l0.9-0.5l0.7-0.7l0.8-0.4h1.1L164.8,58.6L164.8,58.6z"/>
<path id="IR-17" class="st0" d="M88.7,209.5L88.7,209.5l0.8-0.1l0.1,0.9l-0.3,1.2l0,1.6l1.1,1.2l2-0.2l3.1,0.4l2.3-0.3l1.3-0.7
	l0.2-1.4l0.7-0.9l1.1-0.2l0.7-0.8v-1.2l0.4-0.9l1.4-0.5l2-2.1l2.1-0.2l1.3,0.1l0.7-0.4l0.2-2.7l0.3-0.8l4.8-0.3l1.2-1.1l0.1-1.4
	l-0.6-1.2l0.4-0.8l1,0.1l1.3,1.1l3.9,1.8l5.2,5.9l1.5,0.2l1.1,0l0,0.6l-0.2,1.1l-1.1,1.3l-1.3,3l-1.6,2.4l-3.4,0.4l-1.1,0.4
	l-0.5,0.6l0.3,1.6l1.7,1.4l2.5,1.4l1.1,0.2l0.9,0.5l0.5,1.7l0.9,1.3l2.9-3l1.6-0.7l0.8-0.2l0.6,1l0.3,1.7l-0.4,2.7l0.1,1.9l-1,0.9
	l-3.8-0.8l-3.4,0.2l-1.2,1.9l-0.6,1.1l-2.3-0.3l-1,0.3l-0.7,0.4l-0.1,0.9l0.3,2.2l-0.2,2.3l-1.6,0.9l-2.4,0.1l-2,1l-0.2,0.6l0.1,0.4
	l0.2,0.3l0.2,0.3l0.2,0.3l0.1,0.5l-0.1,0.8l0,0.4l0.1,0.3l-0.5,0.8l-0.6,0.4l-0.6-0.2l-1.2-0.1l-5.4,1.3v1.3l0.9,1.4l0.5,1l-0.5,2.6
	l-0.7,1.4l-5.3-0.2l-5.8,1.5l-4-0.3l-8.5-2.8l-2.5-2.2l-2.3-1.4l-2.7-0.6l-2.7-0.2l-5.1-2.1l-5.3,0.7l-2-0.1l-0.6,0.7l0.5,1.6
	l-0.4,2.6l-1.3,4.1l-0.7,5.9l-0.8,0.6l-0.1-0.3l-1.6-1.1l-0.5-0.5l-0.5-0.7l-0.3-0.7l-0.2-0.7l-0.1-0.8l-0.3-0.7l-0.4-0.5l-0.5-0.4
	l-0.5-0.5l-3-5.5l-0.1-0.1l-0.1,0l-0.1,0l-1,0.1l-0.9-0.1l-0.8-0.4l-0.7-1l0.7-0.3l0.3-0.2l0.3-0.3h0l0,0l0.5-1.1l0.3-1L49,242
	l0.8-0.7l0.5-0.5l1.4-1.1l0.3-0.5v-0.4l-0.2-0.4l-0.3-0.4l-0.2-0.5l0.1-0.4l0.5-0.8l0.2-0.4l0.5-2l0.1-1l-0.2-0.9l-0.5-0.8l-0.7-0.4
	h-0.8l-0.7,0.6l-0.6-0.5l-0.4-0.9l-1-3.4l0.3-0.5l1.8-0.4l0.2-0.2l0.2-0.3l0.2-0.3l0.2-0.3l0-1.2l-0.3-1.7l0.1-1.1l1.3,0.4l1.2,0.6
	l1,0.3l2.3,0.2l0.7,0.3l0.2-0.1l0.1-0.3l0.1-0.4l0-0.4l-0.1-0.3l-0.4-0.5l-0.1-0.7l0-0.8l-0.1-0.8l-0.1-0.3l-0.2-0.2l-0.2-0.3
	l-0.1-0.4l-0.1-0.3l-0.3-0.3l-0.3-0.2l-0.3-0.2l-0.5-0.6l0.3-0.7l0.9-1.1l0.1-0.5l-0.1-0.8l0.1-0.5l0.3-0.5l0.4-0.2l1-0.1l0.9-0.7
	l0.2-1l-0.1-1.1l0.2-0.8l0.8,0l0.6,0.3L61,208l0.9,0.3l0.5-0.7l0.3-1l0.3-0.8l0.1-0.8l-0.3-1.1l0,0l-0.1-0.6l0-0.6l0.2-0.5l0.4-0.4
	l0.2-0.1l0.5-0.1l0.2-0.1l0.1-0.2l-0.1-0.5l0-0.2l0.5-0.8l0.2-0.1l0.5,0.2l0.7,0.5l0.3,0.1l0.4,0l1,0.4l0.5-0.1l0.5-0.5l0.9-0.6
	l0.3,0l0.6,0.2l0.9-0.3l0.4-0.1l0.4-0.2l0.3-0.5l-0.7-0.8l0.4-1.2l0.7-1.3l0.1-1.1l-0.5-0.4l-1.3,0l-0.5-0.3l-0.1-0.6l0.3-0.5
	l0.4-0.5l0.2-0.4l0.9,0.3l6.4,5.1l8.1,11.1L88.7,209.5L88.7,209.5z"/>
<path id="IR-01" class="st0" d="M96,37.9L96,37.9l-1.6-1.3l-0.7,0l-0.1,0.7l0,1.3l-0.2,1.2l-0.5,0.4l-1.8-0.4l-1.3,0.1l-0.3,0.6
	l-0.9,0.5l-1.4,1.8l-0.5,2.7l1,2.4l1.7,1l2.3-0.8l2.3-1.3l2.2-0.6l5.1,1.4l1.4-1.2l1.3-1.8l2.1-1.6l0.4-0.5l-0.5-0.2l-0.5-0.7
	l3.9-6.8l2.6-1.7l1.4,0.1l2.3-1.4l2.2-2l1.3,0.5l-0.5,5l0.5,0.8l0.1,3.3l2,4.9l-0.4,2.9l-1.3,1.7l0,1.2l1.8,1l0.6,2.1l-1.7,1.1
	L118,54l-2.3,0.7l-1.4,1.5l-2.7,2l-1.1,2l-0.9,1.1l-0.7,1.6l-0.2,2.2l0.4,1.3l1.6-0.6l2.2-0.3l1.1,1l0.5,0.3l1,0.2l7.6-1.1l2.4,1.2
	l1,3.2l0.2,3.4l1.7,4.2l2.7,3.7l2.3,2.1l0.4,0.8l-0.3,1.2l-0.8,1.6l-0.3,3.9l1,4.7l3.3,2.1l0.2-0.1l0.8,0.2l2.5,1.3l0.9,0.8l0.3,3.1
	l0.9,2.1l2.1,1.4l0.7,0.7l1.5,1.3l-0.1,0.2l-0.2,0.6h0.3l0.3-0.4l0.5-0.2l1.1-0.1l0.5,0.3l0.5,1l0.3,0l0.5,0.3l0.5,0.2l-0.4,0.2
	l-1.2,0.9l-2.5,1l-8.1-0.8l-2.2,0.4l-3.2-0.5l-10.7,1.2l-1.2,0.5l-1.2,0.7l-1.8,2l-2.2,1.1l-1,0.7l-1.4,2.4l-5.1,5.2l-0.7,1.3l0,2
	l0.2,1.4l-8,0.9l-3.3-0.4l-1.2-1.8l0-2.8l-1.3-3.9l0.4-0.6l-0.2-0.9l-1.1-0.9l-1.7-0.4l-1.3-0.8l-1.1-1.1l-1.6-0.3l-1.4,0.9
	l-0.9,0.9l-0.8-0.1l-1.7,0.3l-2,1.3l-1.1,1.4l-0.5,1.2l-0.1,0.4l-0.6,0.9l-1,0.7l-1.6-0.7l-1.5-1.4l-4.2-2.4l-0.6-1.1l-4.7-4.3
	l-3.6-0.1l-4.4-0.8l-9.9-6.5l-1.3-1.9l-0.5-2.3l0.4-5.3l-0.8-1.9l-2.3-2.7l-0.2-0.8l-0.5-0.8l-0.3-0.7l0.1-0.5l0.3-0.3l0.3-0.2
	l0.2-0.2l-0.3-2.6l0-0.2l-0.2-0.3l-0.7-0.9l-1.2-11.6l0-1.4l0.1-0.2l0.1-0.2l0-0.5l-0.2-0.8L40,71.4l-0.3-0.2l-0.2-0.3v-0.6h-0.2
	l-2.2-2.9l-0.5-1.4L37,64l1.9-3.2l5.8-6l1.3-2.3l0-2.2L45.2,48l-0.5-2.5l1-4.6l0.7-1.8l3.7-4l0.2-0.2l0.5,0.1l0.7,0.4l0.2,0l0.3,0.1
	l0.9,0l1.9,0.5l3,0l1.7,0.7l0.8,0.3l7.1,1.5l2.2,1l2,0.5l0.3,0l2.3-0.3l0.6-0.3l1.8-1.3l0.7-0.3l0.4-0.1l1.3,0l0.8-0.3l0.4,0
	l0.5,0.1l3.5,1.6l0.6,0.2l0.6,0l0.7-0.3l0.6-0.3l0.5-0.4l0.5-0.5l0.4-0.6l1-2l0.4-0.6l0.6-0.5l2-1l0.6-0.5l0.6-1.3l0.4-0.6l0.3-0.2
	l0.6-0.3l0.3-0.2l0.2-0.3l0.9-1.5l0.5-0.5l0.5-0.4h0l0.6-0.3l0.5,0l0.9,0.4l0.5,0.1l0.4-0.1l2-1.1l0.3,0.9l0.1,0.1l0,0.5l0.5,0.5
	l1,0.5l0.5,0.9l0.6,2.7l-0.1,0.9l-0.2,0.8l-0.7,1l-2.9,2l-2.1,0.3l-1.4,0.8L96,37.9L96,37.9z"/>
<path id="IR-02" class="st0" d="M27.1,6.1L27.1,6.1l0.1,0.1l0.5,0.3l0.1,0.1l0.7,0.1l0.8,0l-0.1,0.2l-0.1,0.1l0.7,0.5l0.4,0.9l1,4.2
	l0.4,0.9l0.7,0.6l-0.3,0.5l0.1,0.3l0.9,0.6l0.2,0l0.4,0l0.3,0.1L34,16l0.1,0.2l0.1,0.2l1.2,0.8l0,0l0.2,0.2l0.1,0.3l0.3,0.5l0.3,0.4
	l0.3,0.2l0.3,0.4l0.6,1.4l0.2,0.5l0.3,0.4l0.2,0.5l0.3,2.2l0.2,0.7l0.9-0.3l3.5,1.2l0.1-0.1l0.2-0.2l0.3-0.1l0.3,0l0.1,0.3L44.2,26
	l0,0.4l0.3,0.2l0.5,0.1l0.5,0.3l0.2,0.5L45.3,28l0.2,0.4l0.3,0.2l0.3,0.2l0.3,0.3l0.1,0.3l0.3,0.9l0.2,0.4l0.3,0.2l0.8,0.4l0.2,0.3
	l-0.1,0.5l-0.1,0.4L48,33l0.1,0.5l0.4,0.5l0.7,0.5l0.8,0.4l0.4,0.1l-0.2,0.2l-3.7,4l-0.7,1.8l-1,4.6l0.5,2.5l0.9,2.3l0,2.2l-1.3,2.3
	l-5.8,6L37,64l-0.4,1.9l0.5,1.4l2.2,2.9h0.2v0.6l0.2,0.3l0.3,0.2l0.2,0.3l0.2,0.8l0,0.5l-0.1,0.2l-0.1,0.2l0,1.4l1.2,11.6l0.7,0.9
	l0.2,0.3l0,0.2l0.3,2.6l-0.2,0.2l-0.3,0.2l-0.3,0.3l-0.1,0.5l0.3,0.7l0.5,0.8l0.2,0.8l2.3,2.7l0.8,1.9l-0.4,5.3l0.5,2.3l1.3,1.9
	l9.9,6.5l4.4,0.8l3.6,0.1l4.7,4.3l0.6,1.1l4.2,2.4l1.5,1.4l1.6,0.7l1-0.7l0.6-0.9l0.1-0.4l0.5-1.2l1.1-1.4l2-1.3l1.7-0.3l0.8,0.1
	l0.9-0.9l1.4-0.9l1.6,0.3l1.1,1.1l1.3,0.8l1.7,0.4l1.1,0.9l0.2,0.9l-0.4,0.6l1.3,3.9l0,2.8l1.2,1.8l3.3,0.4l8-0.9l4.7,10.5l-0.8,0.3
	l-1,0.6l-0.1,0.8l0.2,0.7l-0.2,0.7l-0.6,1.2l-1.4,1.7l-2.6,1.1l-3.8-0.3l-3.5-1l-1.3-0.9l-0.6-0.6l-0.7-0.6l-0.5-0.6l-0.2-0.5
	l-0.4-0.3l-17.5,1.6l-8.5-1.2l-3,1.2l-0.8,1l-0.1,2l-1.6,2.5l-5.5,1.8l-1,1.1l-0.4,0.7l-0.8,0.8l-0.5,2l-1.9,2.1l-0.6,1.4l-1.3,1.3
	l-1.1,0.7l0,0l0,0l-0.8-0.3l-0.9,0l-1.1,0.6l-0.6,0.2h0v0h0l0,0l-0.7,0.5l-0.8,0.3l-0.7-0.1l-0.6-0.6h0v0l0,0l0,0l-0.2-0.7l0.2-0.9
	l0.4-0.9l0.4-0.7l0.1-0.8l-0.4-0.9l-1-1.4l-0.2-0.9l0.1-1.9l-0.2-0.8l-0.5-0.5l-0.6-0.5l-0.2-0.5l0.8-0.5l-0.6-0.8l-0.2-0.7
	l-0.1-1.8l-0.2-1l-0.4-1.1l-0.6-0.8l-0.9-0.1l-1.9,0.8l-1,0.1l-0.9-0.4l-0.4-0.4L36,144l-0.1-0.4l-0.2-0.6l-0.3-0.4l-0.3-0.3L35,142
	l0-0.6l-0.4-0.5l-0.5-0.5l-0.1-0.1l-0.5-0.6l0.1-0.7l0.2-0.1l0.4-0.2l0.1-0.1l0-0.9l0.4-1.4l0.7-1.5l0-0.8l-0.4-0.9l-0.8-1.5
	l-0.5-0.7l-0.6-0.3l-0.4,0l-0.4-0.1l-0.4-0.3l-0.3-0.4l-0.4-0.4l-0.5-0.1l-1,0.1l-0.9-0.2l-0.7-0.4l-0.3-0.7l0.4-1l1.2-1.5l0.5-0.8
	l0.2-1l-0.2-0.9l-0.3-0.7l-0.2-0.8l0.2-1.1l0.4-0.5l0-0.5l-0.2-0.4l-0.7-0.4l-0.4-0.4l-0.2-0.1l-0.3,0l-0.7,0.2l-0.3-0.1l-0.2-0.2
	l-0.2-0.7l-0.1-0.3l-0.3-0.2l-0.3-0.1l-0.2-0.1l-0.2-0.3l-0.3-0.8v-0.4l0.5-1.2l0.2-0.8l-0.2-0.7l-0.3-0.7l-0.1-0.9l0.2-0.8l0.4-0.4
	l0.5-0.3l0.4-0.5l0.1-1.4l-0.8-0.9l-2-1.3l-0.3-0.6l-0.2-0.6l-0.3-0.4l-1.2,0.2l-0.3-0.4l-0.5-1.2l-0.5-0.4l-1.3-0.1l-0.5-0.3
	l-0.2-0.7l0.5-1.3L19.3,99v0l-0.2-0.9l0.1-1.1l0.2-1.1l0.3-0.9l-0.1-0.7l-0.8-0.6l-0.7-0.8l0.1-1.3l0.3-0.4l1.2-0.9l0.4-0.6L20,89.5
	L18.7,88l-0.9-0.7l-1-0.4L16,86.9l-0.4,0.3L15,87.4l-0.5-0.1l-0.3-0.5l0-0.3l0.1-0.7l0-0.2l-0.3-0.2L14,85.5l-0.2,0.1l-0.3-0.1
	L13.1,85l-0.2-0.5L12.8,84l-0.2-0.4l-0.4-0.3L11,82.8l-0.4-0.1l-2.2,0.3l-1.2-0.2l-0.6-0.9l0.1-0.3l0.1-0.2l0.3-0.4l0.3-0.5l0-0.6
	l-0.2-0.6l0.1-0.6l0.2-0.5l0.3-0.6v0l0,0l0,0L8.1,77l0.8-0.9l0.3-0.7l0.3-0.9L9.8,74l0.4-0.3l0.6-0.3l0.2-0.3l-0.3-0.8l0.1-0.4
	l0.3-0.3l0.6-0.3L12,71l0.2-0.6l0.2-0.8l0.1-0.8l-0.1-2.1l1-1.1l1.2-1l0.8-1.1l0-0.7l-0.3-0.7l-0.4-0.6l-0.5-0.4l-0.5-0.2L13.2,61
	l-1.1,0.7l-1.7-0.3l-0.5-0.2l-0.3-0.2l-0.1-0.4l0.1-0.7l0-0.4l-0.1-1.1l0-0.5l0.4-1.7l0-0.8l-0.3-2.2l0.1-1.7l0-0.9l-0.2-0.7
	l-0.3-0.3l-0.3-0.2l-0.6-0.2l-0.4-0.2l0.1-0.3l0.3-0.3L8.6,48l-0.2-0.8l-0.2-0.5l-0.1-0.5l0.1-0.9l0.9-3.2l-0.2-1.3L7.3,40l-0.6-0.5
	l-0.5-0.7l-0.3-1l-0.1-0.3l-0.1-0.3l0-0.4l0-0.4l-0.3-0.3l-0.3-0.2l-0.2-0.3L4.8,35l-0.1-0.3l-0.2-0.3v0L5,33.5l0.5-0.5l0.3-0.5
	l-0.3-1.7l0.2-0.7l0.7-1.3l-0.3-1.1l-1.3-0.9L3.3,26l-0.9-0.7l0-0.4l0.2-0.8l0-0.4l-0.4-0.9l-0.1-0.4l0-0.4l0.1-0.3v-0.3l-0.4-0.9
	l-0.2-0.9l-0.1-0.4l0,0l-0.9-1.1l-0.2-0.5l0.4-0.5l0.7-0.4l0.5-0.2l0.5,0l0.8,0.1l0.8-0.1l1.8-0.5l0.8,0.1l2.3,1.2l0.9,0.1l0.8-0.2
	l1.8-0.8l0.6-0.5l0.6-0.9l0-0.8l-0.1-0.8l0.2-1l0,0h0l0.3-0.5l0-0.5l-0.1-0.6l-0.1-0.6l0.1-0.7L14,9l1.1-2.3l0.2-0.6l0-0.2l0.1-0.5
	L15.2,4l0.1-0.5l3.6-3l0.8-0.3l0.5,0.4L21.2,2l0.5,0.5l2,1l0.7,0.6L27.1,6.1L27.1,6.1z"/>
<path id="IR-28" class="st0" d="M189.7,137.3L189.7,137.3l1.7-0.1l1,0.2l0.7,0.5l3.1,0.6l1.7-0.3l6.4-3.5l0.7-0.2l0.8-0.4l2.8-0.6
	l4.6,0.5l9,7.6l1.9,1l5.5,4.2l0.4,1.1l0,0.8l-8.1-0.9l-3.8,0.3l-1,1.5l1.7,2.4l1.3,1.1l2.4,0.7l1.6,1.4l-1.1,3.6l-1.6,3.4l-0.4,1.5
	l-1.2,1.1l-6.9,3.4l-1.9,1.8l-0.4,1.6l0.3,1.3l0.9,1.9l0.7,1.2l-1-0.1l-2,0.1l-6.1,2.6l-1.6,0.1l-1.9,0.5l-1.8,0.9l-6,1.8l-1.4,1.1
	l-1,2.3l-5.9,0.2l-0.8-0.6l-4.8-1.2l-0.9,0.3l-4.3-0.7l-2.3-1.8l1-1.6l-1.3-1.6l-2.8-1.6l-3.7-0.1l-1.6,0.7l-2.5-3.7l-4.3-3.9
	l-0.1-1.3l0.7-0.5l1.1-0.2l1.4-0.1l1.2-0.3l1.9-1.4l3.1-0.9l2.2,0.1l3.1,1.4l-0.1-0.5l0.2-1.7l2.1-2.4l3.4-1.9l6.2-1.7l0.8-1.1
	l-0.5-4.4l-0.8-1.7l-1.1-1.8l-0.6-2.1l-0.6-1.1l-0.9-0.5l-0.6-0.7l-0.6-0.4l-1-0.1l-1.7-0.8l-1.1-1.7l-1.1-2.7l-1.8-2.3l-0.7-2.7
	l1.4-3.2l3.7-2.5l2.8-0.9l3.2,1.6l0.1,0.7l0.4,1.4l1.9,2.4l2.1,1.9L189.7,137.3L189.7,137.3z"/>
<path id="IR-11" class="st0" d="M165.1,111.4L165.1,111.4l5.1,3.3l3.8,4l1.4,2.3l2,7l-2.8,0.9l-3.7,2.5l-1.4,3.2l0.7,2.7l1.8,2.3
	l1.1,2.7l1.1,1.7l1.7,0.8l1,0.1l0.6,0.4l0.6,0.7l0.9,0.5l0.6,1.1l0.6,2.1l1.1,1.8l0.8,1.7l0.5,4.4l-0.8,1.1l-6.2,1.7l-3.4,1.9
	l-2.1,2.4l-0.2,1.7l0.1,0.5l-3.1-1.4l-2.2-0.1l-3.1,0.9l-1.9,1.4l-1.2,0.3l-1.4,0.1l-1.1,0.2l-0.7,0.5l0.1,1.3l4.3,3.9l2.5,3.7
	l0,0.7l-1.2,1.7l-2.6,0.9l-2.9-0.7l-3-1.6l-7.3-0.3l-1.5-0.9l-1.1-2.1l-0.3-0.9l-0.7-1.1l-0.6-0.6l-9.3-5.7l-0.5-1.1l0.6-1.5
	l1.3-1.4l0.8-3.1v-4.3l-0.6-2.4l-0.6-0.1l-0.1-0.1l0-0.3l0.1-0.3l0.1-0.3l0.1-0.3l-0.2-1l0.1-0.4l0.4-0.3l-0.3-0.5l-0.4-0.8
	l-0.3-0.9l-0.1-0.8l-0.2-0.4l-1.1-1.2l-0.1-0.2l-17.1-3.4l-1-1l-4.7-10.5l-0.2-1.4l0-2.1l0.7-1.3l5.1-5.2l1.4-2.4l1-0.7l2.2-1.1
	l1.8-2l1.2-0.7l1.2-0.5l10.7-1.2l3.2,0.5l2.2-0.4l8.1,0.8l2.5-1l1.2-0.9l0.4-0.2l1-0.3l1.4,0.5l2.5,2.7l1.1-0.2l0.4-0.8v-0.7
	l0.4-0.7l0.6-0.3l1,0.6l1.2,0.2l1.3-0.9l1.2-0.4L165.1,111.4L165.1,111.4z"/>
<path id="IR-24" class="st0" d="M142.9,175.1L142.9,175.1l1.1,2.1l1.5,0.9l7.3,0.3l3,1.6l2.9,0.7l2.6-0.9l1.2-1.7l0-0.7l1.6-0.7
	l3.7,0.1l2.8,1.6l1.3,1.6l-1,1.6l2.3,1.8l4.3,0.7l0.9-0.3l4.8,1.2l0.8,0.6l0,1l0.3,1.5l0.8,1.1l-0.1,1.6l-1.1,1.3l-1.2-0.2l-0.7-0.9
	l0-1.1L182,189l-0.9,0.1l-1.1,1.4l0.6,2.8l1.5,2.5l0.4,1.9l-1.6,1.9l-1.9,0.6l-1,0.1l-0.6,0.7l0.1,0.6l0.8,0.8l1.5,0.8l3.6,1
	l1.7,0.8l1.6,1.9l0.9,2.1l0.7,4.4l-0.8,1.7l-1.5-0.1l-1.1-1l-1.3-1.6l-0.5-1.9l0.7-1.5l-0.8-1.2l-2.9-0.5l-6.2,0.3l-0.9,1.3l0.4,2.4
	l-0.4,1.5l-0.9,1.5L172,217l0.6,3.2l-0.8,0.2l-1.6-0.8l-3.5-0.4l-1.2,0.5l0.5,1.2l1.7,0.7l0.6,2.6l0.3,4.3l2.4,4.7l0.5,2.2l0.2,2.2
	l0.6,2.6l-0.1,1l-0.6,0.8l-3.5,3.2l-9.2-3.9l-2.2,0.3l-1.8-0.1l-0.9,0.2l-1.8,1.8l-1,0.3l-1.3-0.5l-7.5-0.9l-14.5-9.6l-0.7-1
	l-1.4-0.9l-0.8-0.4l0.6-1.1l1.2-1.9l3.4-0.2l3.8,0.8l1-0.9l-0.1-1.9l0.4-2.7l-0.3-1.7l-0.6-1l-0.8,0.2l-1.6,0.7l-2.9,3l-0.9-1.3
	l-0.5-1.7l-0.9-0.5l-1.1-0.2l-2.5-1.4l-1.7-1.4l-0.3-1.6l0.5-0.6l1.1-0.4l3.4-0.4l1.6-2.4l1.3-3l1.1-1.3l0.2-1.1l0-0.6l1-0.6
	l2.1-0.6l1.2-0.7l0.4-1.2l0.6-0.2l1.1,2.7l0.7,0.4l1.1-1l1.2-1.9l0.7-3.1l-0.9-3.8l-1.9-1.9l-1.4-0.9l-1.7-2l-3.6-8.2l-2.4-3.5
	l0.5-1.1l1.8-2l0.8-0.1l1.6,3.3l1.1,0.3l1.1-0.5l1-0.9l2.4-0.8l0-1.1l-0.4-0.9l-1-1.3l-0.6-1.7l1.2-0.3L142.9,175.1L142.9,175.1z"/>
<path id="IR-26" class="st0" d="M266.7,208.9L266.7,208.9l0.5,1.6l-0.1,3.4l-0.9,3.6l-1.5,3.5l-1.1,1.6l-11.4,3l-2.6-0.1l-7.3,0.8
	l-3.2,1.4l-1.3,1.3l-0.4,1.2l-1,8l0.7,1.8l1,0.5l-7.8-2.1l-3.5-1.9l-8.7-0.8l-2.2-1.9l-1.6-1.9l-0.8-2l0.1-1.7l-0.5-1.2l-1-1.2
	l-1-0.6l-1.4,0.1l-1.2-0.6l-1.5-1.4l-1.8-2.1l0.3-2.1l3.2-1.8l0.4-0.8l-0.7-1l0.1-2.7l1.9-1.6l3.1,0.4l2.9-0.9l2-1.3l4.2-0.7
	l3.5-1.2l0.6-0.4l0.4-1.6l0.6-6.4l1.1-3.2l1-1.4v0.1l9.7,0.1l8.1,2.4L266.7,208.9L266.7,208.9z"/>
<path id="IR-22" class="st0" d="M226.6,180.9L226.6,180.9l1-0.2l0.9-1.9l1.6-0.1l1.6,2l0.9,1.7l0,2.9l-2.9,9.5l-1,1.4l-1.1,3.2
	l-0.6,6.4l-0.4,1.6l-0.6,0.4l-3.5,1.2l-4.2,0.7l-2,1.3l-2.9,0.9l-3.1-0.4l-1.9,1.6l-0.1,2.7l0.7,1l-0.4,0.8l-3.2,1.8l-0.3,2.1
	l1.8,2.1l1.5,1.4l1.2,0.6l1.4-0.1l1,0.6l1,1.2l0.5,1.2l-0.1,1.7l0.8,2l1.6,1.9l2.2,1.9l8.7,0.8l3.5,1.9l7.8,2.1l-0.4,2.4l-3.2,7.8
	l-0.9,1.6l-1.9,0l-2.1,0.7l-1.9,1.6l-2.1,1.3l-14.1,3.7l-5.4,3.2l-2.8,2.3l-0.3-0.3l-2.2-1.2l-0.2-1.2l0.1-1.2l-0.7-0.8l-1.1-0.8
	l-0.5-1l-0.8-0.5l-1.2,0.9l-0.7,1.3l-0.2,1l-0.8,0.5l-1.1-0.8l-1.2-1.2l-2.6-1.3l-1.1-0.9l-0.3-1l0.4-1.2l0.5-1.2l0-1.1l-0.9-1.6
	l-1.5-1.8l-1.9-0.6l-1.7,1l-1.9,0.6l-1.5,0.9l-1.2,3.6l-0.6,0.7l-2.7,1.7l-0.9-0.4l-3.8-0.3l-2.2-0.8l-1.7-1l-0.4-0.9l0.2-1l0.3-0.9
	l1.4-3.1l-0.1-0.9l-0.4-1.1l0.2-1.3l0.5-0.9l3.5-3.2l0.6-0.8l0.1-1l-0.6-2.6l-0.2-2.2l-0.5-2.2l-2.4-4.7l-0.3-4.3l-0.6-2.6l-1.7-0.7
	l-0.5-1.2l1.2-0.5l3.5,0.4l1.6,0.8l0.8-0.2L172,217l0.1-2.9l0.9-1.5l0.4-1.5l-0.4-2.4l0.9-1.3l6.2-0.3l2.9,0.5l0.8,1.2l-0.7,1.5
	l0.5,1.9l1.3,1.6l1.1,1l1.5,0.1l0.8-1.7l-0.7-4.4l-0.9-2.1l-1.6-1.9l-1.7-0.8l-3.6-1l-1.5-0.8l-0.8-0.8l-0.1-0.6l0.6-0.7l1-0.1
	l1.9-0.6l1.6-1.9l-0.4-1.9l-1.5-2.5l-0.6-2.8l1.1-1.4l0.9-0.1l0.1,0.8l0,1.1l0.7,0.9l1.2,0.2l1.1-1.3l0.1-1.6l-0.8-1.1l-0.3-1.5l0-1
	l5.9-0.2l1-2.3l1.4-1.1l6-1.8l1.8-0.9l1.9-0.5l1.6-0.1l6.1-2.6l2-0.1l1,0.1l1.5,0.3l3.4,0.2l3.3,1l1.9,1.8l0.9,0.5l0.4-0.6v-0.7
	l-1.3-1.8l0.4-1.1l1.9,0l1.3,1.6l0,2.3L226.6,180.9L226.6,180.9z"/>
<path id="IR-03" class="st0" d="M133.8,3.1L133.8,3.1l0.5,0.1l0.7,0.5l2.1,2l5.7,6.8l2.3,2.1l1,1.3l0.8,1.6l-0.4,0.1l-0.9,0.3
	l-1.8,1.2l-2.1,0.4l-1.1,0.6l-1,0.9l-0.6,1.2l-0.1,1.5l0.5,1.2l0.8,1.2l1.9,1.9l1.9,0.8l0.5,0.5l1,2.2l0.2,0.5l0,0.6l-0.2,0.6v0
	l-0.3,0.6l-0.3,0.5h0l0,0v0l0,0l-1.4,0.9l-6.3,1.1l-0.1,0.3l0,0.3l-0.1,0.3l-1.8,1.1l-0.3,0.5l0.1,1.8l0.7,1.2l2.2,1.8l4.5,2.2
	l0.4,0.4l0.1,0.4l0.2,0.6l-0.1,0.8l0.1,0.7l1.6,1.3l0.5,0.8l0.6,0.6l1,0l1.7-0.8h0.8l0.4,0.9l0.2,1.2l0.4,0.6l0.5,0.5l0.6,0.9
	l0.6,0.6l0.5,0.7l0.8,1.1l0.4,0.6l0.9,1.5l1.1,1.1l0.2,0l0.2,0.5l1.1,1l0.7,0.9l0.2,0.8l0.8,0.3l1.3,0.3l0.5,0.6l-0.3,0.8l-7.6,9.1
	l-0.7,1.7l-0.3,2.3l-1.1,1.7l-0.1,2.3l3.1,8.6l5.6,8.9l1.9,1.9l2.2,1.7l1.1,1.4l0,1.2l-0.1,1.9l0.3,2.2l0.4,1.1l-2.3-1.2l-1.2,0.4
	l-1.3,0.9l-1.2-0.2l-1-0.6l-0.6,0.3l-0.4,0.7v0.7l-0.4,0.8l-1.1,0.2l-2.5-2.7l-1.4-0.5l-1,0.3l-0.5-0.2l-0.5-0.3l-0.3,0l-0.5-1
	l-0.5-0.3l-1.1,0.1l-0.5,0.2l-0.3,0.4h-0.3l0.2-0.6l0.1-0.2l-1.5-1.3l-0.7-0.7l-2.1-1.4l-0.9-2.1l-0.3-3.1l-0.9-0.8l-2.5-1.3
	l-0.8-0.2l-0.2,0.1l-3.3-2.1l-1-4.7l0.3-3.9l0.8-1.6l0.3-1.2l-0.4-0.8l-2.3-2.1l-2.7-3.7l-1.7-4.2l-0.2-3.4l-1-3.2l-2.4-1.2
	l-7.6,1.1l-1-0.2l-0.5-0.3l-1.1-1l-2.2,0.3l-1.6,0.6l-0.4-1.3l0.2-2.2l0.7-1.6l0.9-1.1l1.1-2l2.7-2l1.4-1.5L118,54l2.4,0.4l1.7-1.1
	l-0.6-2.1l-1.8-1l0-1.2l1.3-1.7l0.4-2.9l-2-4.9l-0.1-3.3l-0.5-0.8l0.5-5l-1.3-0.5l-2.2,2l-2.3,1.4l-1.4-0.1l-2.6,1.7l-3.9,6.8
	l0.5,0.7l0.5,0.2l-0.4,0.5l-2.1,1.6l-1.3,1.8l-1.4,1.2l-5.1-1.4L94,46.8l-2.3,1.3l-2.3,0.8l-1.7-1l-1-2.4l0.5-2.7l1.4-1.8l0.9-0.5
	l0.3-0.6l1.3-0.1l1.8,0.4l0.5-0.4l0.2-1.2l0-1.3l0.1-0.7l0.7,0l1.6,1.3l1.5-0.3l1.4-0.8l2.1-0.3l2.9-2l0.7-1l0.2-0.8l0.1-0.9
	l-0.6-2.7l-0.5-0.9l-1-0.5l-0.5-0.5l0-0.5l-0.1-0.1l-0.3-0.9l0.2-0.1l0.3-0.4l0.2-0.3l0.6-1.7l1.2-2l0.1-0.4l0.3-0.4l1.6-1l3.4-1.3
	l0.4-0.2l1-0.6l1.1-1.1h0l1.7-2.2l1.1-0.9l1.4-0.8l2.4-0.8l0.8-0.1l0.4-0.3l1.8-1.8l0.6-0.3l4.1-2.3l1.5-1.5l0.5-0.5l0.6-0.4
	l0.8-0.2l2.6,0.1L133,4l0.4-0.3L133.8,3.1L133.8,3.1L133.8,3.1z"/>
<path id="IR-23" class="st0" d="M374.1,563.2L374.1,563.2l-0.3,0.2l-0.3,0l-0.2,0.1l-0.3-0.3l-0.2,0.1l0-0.2l-0.1-0.2l-0.1-0.4
	l0.5-0.3l0.6-0.2l0.2,0.3l0,0.4L374.1,563.2z M357.2,561.9L357.2,561.9l-0.3,0.3l-0.5-0.1l-0.5-0.3l-0.1-0.4l0.4-0.2l0.8-0.2
	l0.2,0.3L357.2,561.9L357.2,561.9z M356.3,548.6L356.3,548.6l-0.2,0l-0.4-0.1l-0.4-0.2l-0.2-0.2l0-0.5l-0.1-0.4l0-0.3l0,0l0.1-0.4
	l0.2-0.3l0.3-0.2l0.3,0.1l0.3,0.4l0.2,0.1l0.2,0.2l0.2,0.2l0.1,0.3L356.3,548.6L356.3,548.6z M340.1,539.5L340.1,539.5l-0.4,0.2
	l-2.5-0.1l-0.3,0l-1.1-0.5l-0.7-1.1l0.3-0.5l0.5-0.4l0.6-0.2l0.7,0l0.6,0.2l1.3,0.1l0.5,0.2l0,0l0.1,0.2l0,0.1l0,0l0,0.3l0,0v0
	l0,0.3l0,0l0.2,0.1l0.1,0.1l0.1,0.1l0,0.2l0,0.2l-0.1,0.2L340.1,539.5L340.1,539.5z M402.4,534.6L402.4,534.6l-0.7,0.4l-0.5-0.3
	l0.1-0.9l0.4-0.8l0.5-0.4l0.3-0.1l0.3,0.4l0.1,0.9L402.4,534.6L402.4,534.6z M326.9,532.8L326.9,532.8l-0.4,0.4l-0.6-0.1l-0.6-0.3
	l-0.3-0.5l0.3-0.4l0.7,0l0.4,0.1l0.4,0.2L326.9,532.8L326.9,532.8z M317.5,527.8L317.5,527.8l-0.5,0.1l-1.3-0.1l-0.4,0.1l-0.6,0.4
	H314l-1.9-0.3l-0.6-0.3l-0.1,0l-0.5-0.3l-1.1-0.9l-0.3-0.3l0.1-0.2l0.2,0l0.3-0.1l0.3,0l2.9,0.9l2.5,0.2l0.8,0.3l0.4,0.4
	L317.5,527.8L317.5,527.8z M419,526.4L419,526.4l-1.3,0.4l-0.6-0.3l0.2-1l0.5-0.7l0.9-0.4l1.3-0.1l0.2,1.2L419,526.4L419,526.4z
	 M415.3,522.3l-0.5,0.3l-2.1,0.5l-0.8,0.7l0,0l0,0l-0.8,1.7l-0.4,0.7l-1.4,1.4l-0.2,0.5l-0.3,0.3l-1.3,0.7l-0.3,0.3l-0.3,0.2
	l-1.7,1.6l-1,0.6l-0.8-0.3l-0.7-0.8L402,530l-2.3,1.2l-0.6,0.5l-0.6,0.4l-0.7,0l-1.5-0.2l-0.7,0.2l-0.7,0.3l-1.8,1.3l-1.9,0.8
	l-1.1,0.8l-0.6,0.3l-2.1,0.2l-1.5,0.4l-0.6,0.4l-0.3,0.1l0,0l-0.1,0l-0.2,0l-0.4-0.1h-0.3l-0.1,0.3l-0.1,0.3l-0.4,0.2l-0.4,0.1
	l-0.3,0l0,0l-0.1-0.1l-0.1-0.1L382,537l-0.2-0.9l0.2-0.7l0.1-0.4l-0.2-0.2l-0.3-1.2l0.4-0.4l1.6,0.6l0.4-0.2l0.2,0.1l0.1,0l0,0
	l1.8-1l4.5-1.5l0.7-0.1l0.4-0.2l0.1,0l0,0l1.6-1l0.7-0.5l2.2-0.9l0.3,0l0.7,0.1l0.3,0l0.2-0.1l0.4-0.3l0.3-0.1l-0.1-0.3l-0.1-0.3
	l0.5-0.6l0.1-0.7l-0.2-1.7l-0.3-0.7l-0.6-0.5l-0.6-0.4l-0.2-0.3l0.9-0.5l4.7,1.8l1.3-0.3l3.6-2.3l4.5-1l1.3,0l0.7,0.2l0.9,0.4
	l0.5,0.4l0.2,0.2l0.3,0.7L415.3,522.3 M422.5,518.5L422.5,518.5l-0.5,0.1l-1.1-0.4l0.1-1l0.6-0.9l0.6-0.1l0.4,0.2l0.4,0.2l0.3,0.3
	l0,0.1l0.1,0.5l-0.1,0.5l-0.3,0.3l-0.2,0.1L422.5,518.5z M391.7,452.8L391.7,452.8l1.5,0.8l1.7-0.5l6.8-5.1l4-1.9l1-0.1l1,1.4
	l0.6,14.7l-0.8,2.9l0.7,3.8l3,3.9l2.9,2.7l3.5,2.1l4,0.6l2.2-0.4l4-2l3.7-3.5l1-1.3l1.6-1.2l1.8,0.1l3.5,1.7l0.3,0.6l-0.3,3.9l1.2,6
	l0.5,0.8l0.7,0.6l1,0.1l1.8,1l1.4,1.8l0.8,1.5l1.5,1.7l1.5,2.3l0.2,1.9l-0.9,0.8l-0.6,1.2l0.8,1.1l0.9,0.5l0.9,1.9l1,3l1.1,14.3
	l0.7,2.2l10.5,5.6l2.3,1.7l1,0.3l1.6-1.5l0.8-1.1l1.4-1l2.2,0.1l2.3,1.4l2.5,2.1l2,2.3l1,2.1l-0.3,0.7l-2.1-1.3l-0.7,0l0,0.8
	l0.8,2.4l0,1l-0.2,0.6l-0.6,0.8l-0.5,1.2l-0.8,7.4l0.2,1.1v1.1l-0.4,2.1l-0.7,0.8l0.1,0.8l4.5-0.3l2.8,0.5l1.8-0.2l1.2-0.5l1.2,0.3
	l1.3,0.6l2.1,0.3l0.6,0.4l0,0.4l-0.3,0.7l0.1,0.7l0.3,0.8l0.1,1.2l0.6,1l1.4,0.3l1.7,0.1l1.5-0.2l1-1l1-0.3l1.3,0.5l0.9,0l0.5,0.4
	l1.4,2.1l-0.4,0.2l-0.6,0.9l-0.2,1.2l0.1,0.7l0.5,0.2l1.2,0.8l6.4,5.7l1.1,1.8l0.2,1.4l0.8,0.8l1,0.4l0.5,0.7l0.2,0.8l0.5,0.6
	l0.6,0.6l1.2,2l0.3,0.4l0.6,0.3l-0.1,0.6l0,0.6l-0.9,0.4l0.2,0.9l0,0l-1.9,0.3l-1.9,0.9l-0.7,0.2l-0.3-0.1l-0.3-0.2l-0.3-0.2
	l-0.3,0.1l-0.3,0.1l-0.3,0.1l-0.8,0l-0.7-0.1l-0.6-0.2l-0.4-0.4l-1.6-2.5l-0.8-1l-1.3-0.6l-1.2,0l-0.3-0.2l-0.2-0.4L502,575
	l-0.2-0.3l-0.4-0.1h-2.9l-6.1-1.1l-2.1,0.3l-1.8-0.1l-0.6-0.3l0.3-0.6l-1,0.1L486,573l-0.5,0.2l-0.8,0.7l-0.5,0.1l-0.2-0.1l-0.1-0.2
	l-0.2,0l-0.4,0.4l-0.3,0.2l-0.4,0.1l-0.3,0l-0.1-0.3l-0.2,0.1l-1.2,0.8l-1.3,0.2l-1.1-0.2l-1.1-0.3l-1.1-0.2l-0.9-0.4l-0.7-1l-1-2.2
	l-1.1-1.3l-1.3-0.3l-1.4,0.4l-1.4,0.7l-1.1,0.9l-0.8,0.5l-0.5,0l0.1-1.7l0.1-0.4l0.1-0.2l0-0.1l0-0.3l-0.4-0.9l-0.5-0.5l-0.7-0.2
	l-0.9,0l-0.8,0.1l-1.9,0.4L461,568l-0.7-0.3l-0.4-0.1l-0.4,0l-0.7,0.2l-0.4,0l-0.8-0.1l-2.3-0.7l0.3-0.2l-4.5-0.3l-0.5-0.3l-0.2-0.6
	l-0.2-1.8l-0.8-1.9l-0.4-1.5l-0.3-0.7l-0.3-0.3l-0.1-0.1l-0.8-0.9l-0.1,0l-0.4,0.1l-0.1,0l-0.1-0.2l-0.1-0.4l-0.5-1.3l-0.1-0.6
	l-0.3-0.7l-0.1-0.5l0.2-0.8l1.1-1.2l0.4-0.8l-0.5-1.2l-2.2-2.5l0.2-1l-0.3-0.2l-0.2-1.7l-0.2-0.8l-0.4-0.7l-0.6-0.6l-0.2-0.3
	l-0.1-0.3l-0.1-0.9l0-0.3l0.6-4.7l-0.1-1.8l-2.2-8.8l-0.5-0.7l-1.1-1l-0.4-0.6l0-0.6l-1-0.7l-0.4-0.4l0.5,0l0.4-0.2l0.3-0.2l0.4-0.2
	l-0.3-0.3l0-0.4l0.1-0.4l0.2-0.3l-1,0.5l-0.4,0.1l-0.3-0.1l-0.2-0.2l-0.1-0.2l-0.2-0.1l-0.2-0.1l-0.2-0.3l-0.2-0.2l-0.7,0.3
	l-0.2-0.1l-0.1-0.3l0-0.4l-0.4,0.1l-0.2-0.2l0-0.3l0.3-0.1l0.2-0.1l0.6-0.7l0.3-0.2v-0.3l-1-0.1l-0.8-0.5l-0.5-0.8l-0.2-0.9
	l-0.4,0.4l-0.4,0.2l-0.9,0l-0.5-0.2L431,515l-0.3-0.4l-0.3-0.2l-3.5,0l-0.8-0.2l-0.2,0.3l-0.8-0.5l-1-0.2l-2.1-0.1l-1-0.2l-1.8-0.7
	l-1-0.2l-2.1,0.1l-1.1,0.3l-0.8,0.5l-0.7,0.3l-2.2,0.1l-0.9,0.2l-0.3,0.2l-0.6,0.6l-0.1,0.2l-0.1,0.4l-0.2,0.1l-0.3,0.1l-0.3,0.2
	l-0.6,0.5l-2.3,1.4l-0.8,0.7l0,0.2l-0.2,0.1l-0.6,0.5l-0.4,0.1l-1.5,0.2l-1.4,0.3l-0.4,0l-1.1,0L399,520l-0.5,0.4l-0.3,0.1h-1.3
	l-1.1-0.3l-0.3,0l-0.6,0.3l-1.1,1.1l-0.4,0.2l-0.4,0.3l-1.8,2l0.5-0.2l0.2-0.1l0.3-0.3l0.1,0.9l-0.2,1.1l-0.4,1.1l-0.5,0.8l-1.1,1
	l-1.3,0.7l-1.4,0.3l-1.5-0.1l-2.7-1l-1.5-0.2l-1.3,0.6l-0.4,0.7l-0.2,0.7l-0.3,0.5l-0.8,0.2l-0.7,0.1l-1.5,0.4l-0.5,0.2l-2.2,2
	l-0.4,0.2l-3.3,2.7l-3.7,2.2l-0.2,0.2l-0.2,0.3l-0.3,0.2l-0.4,0.1l-0.4-0.1l-0.6-0.3l-0.4-0.1l-2.9,0.3l-1.5-0.2l-0.6-0.9l-0.4-1.1
	l-1-0.9l-1.5-0.3l-3.1,0.1l-1.2-0.6l-0.6-1l-0.5-1.2l-0.6-1.2l-1-0.8l-0.7-0.1l-0.7,0.1l-0.7,0.2l-2.6,0.2l-0.7-0.1l-2.3-0.7
	l-0.6-0.1l-0.4-0.1l-0.6-0.5l-0.3-0.1l-0.4,0l-0.7,0.2l-2.2,1l-1.6,0.2l-1.4,0.4l-0.8,0l-1.5-0.5l-0.8-0.1l-0.8,0.4l-0.4-0.2
	l-1.8-1.5l-2.5-1.5l-3.3-2.5l-0.5-0.6l-0.2-0.7l-0.1-1.8l-0.3-0.8l-0.6-0.7l-1.1-0.7l-11.5-3.9l-0.7-0.1l-0.7-0.2l-0.5-0.5l-0.4-0.6
	l-0.4-0.5l-2-0.5l-0.3-0.4l-0.3-0.8l-0.7-0.4l-1.6-0.5l-2.7-2.5l-1.2-0.8l-1.8-0.8l0.5-1.1l0.2-0.2l0.1,0l0.7-0.3l0.4,0l2.2-0.2
	l0.5,0l1.7,0.4l1.6,0.1l0.5-0.2l1.5-0.8l0.9,1.8l2.5,2.4l7.5,0.7l1.3,0.5l2.9,2.3l0.6,0.3l0.6,0.1l2.5-0.6h0.9l10.4,1.8l3.5-1.9
	l0.9-1.5l-0.4-1.1l0-0.4l0.7-2.1l0.5-3l1.5-1.8l3.5-1.2l9-0.8l2.1,0.3l1.6,0.6l1.7-0.7l3.1-0.7l9,1.3l4.2-1.3l2-1.9l1.1-3.4l1.3-2.1
	l4.6-2.5l3.1-0.8l2,0.1l1-0.5l0.8-0.5l0.6-0.9l0.2-2.2l-1.6-2.6l-2.9-2.3l-0.2-1.2l0.2-1.6l1.7-6.3l0.4-4.3l-0.9-2.4l-10.2-9.9
	l-0.2-1.8l1.1-0.8l0-1.1l-2-5.9l2.9,0.2l6.1,1.7l3,2.4l1.5,1.9L391.7,452.8L391.7,452.8z"/>
<path id="IR-05" class="st0" d="M114.4,243.3L114.4,243.3l0.5,0.6l0.8,1.8l0.3,2l-0.2,1.3l-0.5,0.9l-0.8,0.9l-1.9,1.3L112,253
	l-11.9,3.3l-2.1,2l-0.7,1.8l-0.6,0.1l-0.6,0.3l-0.1,0.6l-0.5,1.6l0,0.3l0.5,0.3l0.8,1.4l1.1,0.6l0.9,1.1l0.7,0.3l1.8,1.1l0.3,0.1
	l0.1,0.3l-0.1,0.4l-0.4,0.7l0.1,0.3l0.4,0.5l0.4,0.4l0.6,0.3l1.3,0.4l0.1,0.1l0.1,0.2l0.1,0.2l0.2,0.1l0.2,0l0.2-0.2l0.2,0l0.3,0.1
	l0.2,0.1l0.2,0.2l1.7,1.3l0.6,0.3v0.5l0.6,0.6l0.9,0.5l1.4,0.4l4.2,2.1l0.4,0.4l0.2,0.5l0.4,0.1l0.5,0l0.4,0.2l0.8,1l0.7,1.3
	l0.4,0.5l0.6,0.2l0.5,0.3l1.1,1.2l4,5.3l5.5,11.5l0.7,1l0.4,0.4l-3.1,7.3l-2.5,3.4l0.1,2l0.4,2.6l-1.2,2l-3.5,2.3l-0.9,0.4l-0.1-0.1
	l-0.7-0.3l-0.5-0.1l-0.3-0.3l-0.3-0.4l-0.4-0.3l-0.5-0.2l-0.2-0.2l0-0.3l0.1-0.6l0.1-0.4l0.2-0.4l0.2-0.4l0.1-0.5l-0.2-0.5l-0.7-0.5
	l-0.2-0.5l-0.3-0.2l-0.2-0.2l-0.6-0.8l-0.1-0.2l-0.2-0.2l-1-1l-0.2-0.2l-0.2-0.5l0-0.2l0.1-0.1l0.3-0.7l0.2-0.2l0.1-0.3l-0.1-0.5
	l-0.2-0.3l-0.9-0.7l-0.6-0.7l-0.4-0.6l-0.4-0.5l-0.7-0.4l-1.9-0.7l-0.5,0l-1.6,0.9l-0.6,0.2l-1.2,0.1l-1.1-0.2l-1-0.5l-1.1-0.8v0h0
	l-10.2-8.9l-1.4-1.6l-2.2-1.4l-1.6-1.3l-0.1-0.1l-3.2-1.8l-0.9-1l-3.4-1.6l-3.6-1.1l-4,0.5l-2-0.2l-0.7-1.6v0l0.4-0.5l0.6-0.5
	l0.5-0.5l0.2-0.7l-0.2-0.5l-0.5-0.4l-0.6-0.3l-1.5-0.2l-0.5-0.4l0-0.5l0.7-0.4l0.7-0.1l0.6,0l0.6-0.1l0.7-0.5l0.9-0.9l0.5-0.6
	l0.2-0.5l0-0.4l-0.4-0.3l-0.2-0.4l0-0.3l0.2-0.8l0-0.4l-0.3-0.7l-0.5-0.5l-1.1-0.9l-1.3-1.9l-1.1-1.1l-0.2-0.6l0-0.7l-0.1-0.8
	l-0.3-0.8l-0.4-0.7l-1.1-1.4l-0.1-0.1l-0.1-0.1l-0.1-0.1l0,0l-0.2,0l-0.2,0l-0.2,0.1l-0.6,0.6l-1,0.1l-1-0.2l-0.6-0.5l0.5-0.7l1.6-1
	l0.4-0.6l-0.2-0.9l-0.7-0.5l-0.6-0.6l0.1-1.3l-0.7,0.2l-1.7,0l-0.6,0.3l-1,1l-0.6,0.4l-0.6,0.1l-0.2-0.3l0-1.4l-0.1-0.3l0.8-0.6
	l0.7-5.9l1.3-4.1l0.4-2.6l-0.5-1.6l0.6-0.7l2,0.1l5.3-0.7l5.1,2.1l2.7,0.2l2.7,0.6l2.3,1.4l2.5,2.2l8.5,2.8l4,0.3l5.8-1.5l5.3,0.2
	l0.7-1.4l0.5-2.6l-0.5-1l-0.9-1.4v-1.3l5.4-1.3l1.2,0.1L114.4,243.3L114.4,243.3z"/>
<path id="IR-20" class="st0" d="M124.9,230.5L124.9,230.5l0.8,0.4l1.4,0.9l0.7,1l14.5,9.6l7.5,0.9l1.3,0.5l1-0.3l1.8-1.8l0.9-0.2
	l1.8,0.1l2.2-0.3l9.2,3.9l-0.5,0.9l-0.2,1.3l0.4,1.1l0.1,0.9l-1.4,3.1l-0.3,0.9l-0.2,1l0.4,0.9l1.7,1l2.2,0.8l3.8,0.3l0.9,0.4
	l2.7-1.7l0.6-0.7l1.2-3.6l1.5-0.9l1.9-0.6l1.7-1l1.9,0.6l1.5,1.8l0.9,1.6l0,1.1l-0.5,1.2l-0.4,1.2l0.3,1l1.1,0.9l2.6,1.3l1.2,1.2
	l1.1,0.8l0.8-0.5l0.2-1l0.7-1.3l1.2-0.9l0.8,0.5l0.5,1l1.1,0.8l0.7,0.8l-0.1,1.2l0.2,1.2l2.2,1.2l0.3,0.3l-0.8,1.6l-0.1,2.2l0.1,1.8
	l-3.4,6.9l-0.2,1l-0.1,0.8l-0.8,0.5l-5,1.4l-1.9,2.3l-0.6,4.8l-1.6,1.2l-2.7,0.9l-0.8,0.5l-0.5,0.8l-0.2,1l0,0.4l-2.5,0.5l-4.8-0.5
	l-7.9-5.4l-7.5-0.8l-2.1-0.6l-1.7-1.7l-3.5-1l-3.6,0.3l-2.4,0.7l-8.4,0.6l-1.8,1.4l-4.6,12.2l-1.9,2.7l-0.4-0.4l-0.7-1l-5.4-11.5
	l-4-5.3l-1.1-1.2l-0.5-0.3l-0.6-0.2l-0.4-0.5l-0.7-1.3l-0.8-1l-0.4-0.2l-0.5,0l-0.4-0.1l-0.2-0.5l-0.4-0.4l-4.2-2.1l-1.4-0.4
	l-0.9-0.5l-0.6-0.6v-0.5l-0.6-0.3l-1.7-1.3l-0.2-0.2l-0.2-0.1l-0.3-0.1l-0.2,0l-0.2,0.2l-0.2,0l-0.2-0.1l-0.1-0.2l-0.1-0.2l-0.1-0.1
	L103,271l-0.6-0.3l-0.4-0.4l-0.4-0.5l-0.1-0.3l0.4-0.7l0.1-0.4l-0.1-0.3l-0.3-0.1l-1.8-1.1l-0.7-0.3l-0.9-1.1l-1.1-0.6l-0.8-1.4
	l-0.5-0.3l0-0.3l0.5-1.6l0.1-0.6l0.6-0.3l0.6-0.1l0.7-1.8l2.1-2L112,253l0.7-0.9l1.9-1.3l0.8-0.9l0.5-0.9l0.2-1.3l-0.3-2l-0.8-1.8
	l-0.5-0.6l0.6-0.4l0.5-0.8l-0.1-0.3l0-0.4l0.1-0.8l-0.1-0.5l-0.2-0.3l-0.2-0.3l-0.2-0.3l-0.1-0.4l0.2-0.6l2-1l2.4-0.1l1.6-0.9
	l0.2-2.3l-0.3-2.2l0.1-0.9l0.7-0.4l1-0.3L124.9,230.5L124.9,230.5z"/>
<path id="IR-10" class="st0" d="M182,293.7L182,293.7l2.5-0.5l1.6,4.1l1.8,1l2.9-0.2l3.4,1.3l1.4,1.9l-0.7,1.1l-0.9,3l0.1,1.2
	l0.6,2.4l5.1,8.1l1.1,2.7l0.8,1.1l0.8,0.6l0.5,0.6l1.6,0.5l0.6,0.6l0.4,1.1l0.9,3.3l1,2.4l1,1.6l1.7,1.5l0.7,1.1l2.9,3.1l1,2.2
	l-0.1,1.9l-1.8,2.3l-1.2,2.3l-2.3,3l-4.1,3.6l-2.6,1.1l-1.1,0.9l-0.9,1.1l-0.6,1.3l0,2.3l1.5,5.6l0.1,1.6l-0.2,0.6l-0.1,1.2
	l-0.3,1.3l0.2,1l5.8-0.8l1.4,1.8l2.6,2.6l3.2,1.7l1.9,1.4l0.6,2.1l-2,4.6l0.2,2l1.1,1.2l0.6,2.6l0.6,6.2l-5.2-0.3l-1.9-1l-3.5,0.6
	l-2.2,1.1l-0.9-0.4l-1.2-0.1l-1.3,0.2l-1.2,0.4l-10.6,6.8l-1.2,0.5l-1.1-0.2l-0.9-1.4l-0.1-0.6l0-1.8l-0.3-0.7l-0.3-0.4l-0.1-0.2
	l-0.1-0.2l-0.4-0.2l-0.3-0.1l-0.3-0.1l-0.7,0l-0.4,0l-0.7,0.2l-0.4,0l-0.4-0.1l-0.5-0.4l-0.3-0.1l-0.7,0.1l-1.3,0.5l-0.7,0.1
	l-0.9-0.1l-0.3-0.3l0-1.6l-0.1-0.1l-0.5-0.3l-0.1-0.2l0-0.2l0-0.6l0.1-0.3l0.1-0.3l0-0.3l-0.4-0.3l-0.2,0.7l-0.4,0.7l-0.5,0.5
	l-0.6,0.1l-0.6-0.4l-0.3-0.5l-0.4-0.4l-0.6-0.1l-0.8-0.3l-2.2-1.3l-0.5-0.4l-0.2-1.3l-0.6-0.8l-0.9-0.5l-1.1-0.3l0.4-0.6l0.6-0.1
	l1.4,0.2l0.7,0l1.1-0.4l0.6-0.1l0.7,0.2l1.4,0.7l0.5,0.2l0.8,0.1l0.6,0.2l0.5,0.4l0.4,0.6l0.2-0.5l0.6-1.1l1-1.3l0.2-0.4l0-0.7
	l-0.7,0.1l-0.5-0.3l-0.3-0.6l-0.3-1.4l-0.4,0.2l-0.5,0.6l-0.5,0.4l0.1-0.5l0.1-0.1l0.1-0.2l-0.3-0.4l-0.3,0.1l-0.3,0.3l-0.5,0.1
	l-0.2-0.1l-0.4-0.5l-0.2-0.1l-0.2,0l-0.3,0.2l-0.2,0l-0.7-0.1l-0.6-0.2l-0.6,0l-0.6,0.3l-1.2-0.2l-1,0.6l-0.2,0.8l0.9,0.4l1.1,0.2
	l0.8,0.5l0.3,0.7l-0.7,0.7l-0.6,0l-1.8-0.3l-0.4,0.1L165,390l-0.1,0.2l-0.3,0.5l-0.2,0.5l0.4,0.4l-0.1,0.3l-0.2,0.3l-0.1,0.2
	l0.3,0.8l0.6,0.6l0.7,0.5l0.6,0.6l0.3,0.7l0.2,0.9l0.2,1.8l-0.1,0.5l-0.3,0.8l-0.1,0.4l0,0.4l0.2,0.7l0,0.5l-0.2,0.8l-0.4,0.7
	l-0.6,0.5l-0.7,0.2l-2.3-0.3l-0.6,0.3l-0.7-0.3l-2.4,0l-1.4-0.8l-0.6-0.1l-0.1,0.7l0.2,0.5l0.5,0.7l0.1,0.5l-0.1,0.4l-0.3,0.3
	l-0.3,0.3l-0.3,0.2l-0.8,0.2l-2.5-0.2v-0.3l-0.2,0.2l0,0.1l-0.2-0.1l-1.1-0.3l-0.5-0.3l-0.5-0.4l-0.2-0.2l-0.1-0.3l-0.3-0.8
	l-0.1-0.5l-0.6-2l-0.1-0.1l-0.2-0.4l-0.7-0.8l-0.4-0.9l-0.1-0.3l0.1-0.4l0.3-0.3l0.3-0.3l0.3-0.3l0.1-0.4l-0.1-0.4l-0.2-0.4
	l-0.2-0.3l-1.3-1.2l-1.1-1.3l-0.7-1.1l-0.3-0.3l-0.4-0.1l-0.4,0l-1.2,0.2l-0.4,0l-0.4-0.1L142,392l-0.3-0.3l-0.1-0.4l-0.3-1.7
	l-0.3-0.9l-0.4-0.8l-0.6-0.6l-0.4-0.2l-0.4-0.1l-3.6-0.5l-0.1-1.2l0,0l0.1-19l-0.1-0.5l-0.4-0.2h-11.1l0.1-9.6l0.1-6.8l5.2-14.1
	l0.2-0.9l-0.1-0.9l-0.5-0.7l-1.3-1l-0.6-0.6l-0.1-0.3l-0.2-0.7l-0.2-0.4l-0.3-0.3l-0.6-0.4l-0.2-0.3l-1.2-2.2l-0.2-0.7v0l-0.3-0.7
	l-1.2-0.6l-0.5-0.6l-0.8-1.7l-0.5-0.7l0.9-0.4l3.5-2.3l1.2-2l-0.4-2.6l-0.1-2l2.5-3.4l3.1-7.3l1.9-2.7l4.6-12.2l1.8-1.4l8.4-0.6
	l2.4-0.7l3.6-0.3l3.5,1l1.7,1.7l2.1,0.6l7.5,0.8l7.9,5.4L182,293.7L182,293.7z"/>
<path id="IR-08" class="st0" d="M247.4,358.9L247.4,358.9l-1.2-0.1l-2.2,0.4l-1.7,1.5l-1.8,1l-3.9-0.5l-1.2,0l-12.6-11.2l-1-0.1
	l-1.8,0.1l-5.9-2.4l-2.4-1.5l1.2-2.3l1.8-2.3l0.1-1.9l-1-2.2l-2.9-3.1l-0.7-1.1l-1.7-1.5l-1-1.6l-1-2.4l-0.9-3.3l-0.4-1.1l-0.6-0.6
	L203,322l-0.5-0.6l-0.8-0.6l-0.8-1.1l-1.1-2.7l-5.1-8.1l-0.6-2.4l-0.1-1.2l6.7-3.6l2.3,0.3l1.2-0.2l1.1-0.5l1.5-0.3l2.1,1.1l2.1,1.7
	l2.2,0.3l1.7-0.4l1,0.4l1.5-0.3l3.8-2.5l1.3-0.2l4.4-0.1l1.4-0.5l0.8-0.8l1.5-0.3l1.3,1.1l0.3,1.8l0.3,1l0.9,0.2l0.5,0.6l0.3,1.2
	l0.7,1.2l-0.2,2.9l0.3,3.1l4.3,3.4l1.8,1.8l3.9,3l1.8,3.2l0.6,4.1l-1.1,2.1l-1.4,0.9l-0.1,1.2l0.7,1.2l1,1.3l0.1,1.2l-1.4,0.6
	l-1.2,0.8l-0.2,2.1l0.8,4.5l3.1,10.3l-0.1,3.1L247.4,358.9L247.4,358.9z"/>
<path id="IR-25" class="st0" d="M450.3,261L450.3,261l8.7-2l1.5,1.9l1.3,2.6l2.5,17.1l2.2,5l2.9,1.6l0.8,0.6l2.2,1l2.9,1.8l2.7,4.3
	l0.9,0.6l0.2,3.1l-0.3,1.3l-0.9,1.5l-0.6,1.4l0.2,0.9l0.5,0.9l1,1.1l0.1,1.2l1,2.3l1.4,2.3l-0.1,2.2l-0.8,2.2l-0.3,2l-0.6,1.9
	l-4.5,6l-1.3,3.5l-3.5,5.4l-1.8,4.6l-0.5,0.8l-36.3-15.7l-4.3-0.8l-0.7,1.1l-1.6,1.7l-7,4l-2.4,2.5l-18,9.5l-1.5,3.2l-0.4,12.5
	l-0.5,2.8l-5.7,2.5l-6.4,0.9l-2.8-0.6l-4.3-0.2l-19,3.4l-3,3.3l-1.6,3l-0.8,2.9l0.1,2l1.9,3.6l2,5.3l0.8,3.9l1.1,1.3l1.1,0.8
	l-0.4,12.7l0.4,2.2l0.5,1.6l0,1.1l-1.1,0.8l-3.4,0.4l-0.3,0.3l-1.5,0.7l-6.9-3.5l-5.3-4l-1-2.3l-1.2-8.6l-1.5-2.6l-5.4-6.6
	l-5.6-10.1l-7.9-20l-4.4-5.3l-5.1-4.7l-8.6-3.3l-1.5-5.9l-0.1-2.8l0.4-1l0.6-4.8l1.4-5.6l0.3-2.6l-1-12.3l0.3-1.3l1.4-0.9l2.4-0.7
	l2.2-1.3l1.5-1.3l2-1.3l3.3-1.3l2.5-0.1l10.7,2.5l35.8-12.4l3.6-2l1.9-2.3l1.3-2.5l1.1-3l1.5-6.8l1.8-2.3l3.4-1.8l2.6-0.3l1.9-1.4
	l2.9-5l0.9-2.9l-0.4-27.6v-0.1l0.6-0.3l3.1-0.6l8.7,0.2l3.7-1.9l12.2-20.5l13.8-3.6l13.5-6.4l8.5-2.2l3.8,1l9.9,7.6l1.2,2.6
	l-0.5,2.6l-3.3,3.2l-13.4,9.5l-2.3,4.2l-4.3,12.9l-0.3,6.9l2.1,11.8l1.6,2.5L450.3,261L450.3,261z"/>
<path id="IR-07" class="st0" d="M274.4,171.9L274.4,171.9l2.3-0.9l4.4-5.3l3.1-2.5l2.2,0.3l2.4,1l3,0.6l3.9,2.1l2.6,0.5l1.8-0.3
	l1.1-0.6l1.5,0.3l3,2.1l1.1,4.7l0.4,4.2l-1.1,3.7l-5.4,4.9l-3.4,1.8l-3.9,1.3l-2.7-0.1l-7.6-2.2l-2.6-0.1l-2.5-0.9l-6.2-3.8
	l-1.9-1.6l-2-0.1l-0.7-0.3l-0.4-0.4l-0.6-0.3l-0.6,0.6l-0.5,3.8l-0.6,2.5l-0.2,1.9l0.3,1.8l3.8,5.1l1.5,2.8l-0.4,2.6l-1.7,2.7
	l-1,3.3l-0.1,1.8l-19.3-11.5l-8.1-2.4l-9.7-0.1v-0.1l2.9-9.5l0-2.9l-0.9-1.7l-1.6-2l0.9-2.1l2.2-1.4l1.8-2.2l1-2.5l3-0.2l0.4-2
	l0.1-2.7l2.1-2.4l2.7-1l2.7,0.3l1.9-1.2v-2.4l0.1-1.8l3.7,2.2l5.2,0.4l4.6,1.8l3.5,3.7l2,3.7l1.2,1.4l1,0.6l1.7,0.6L274.4,171.9
	L274.4,171.9z"/>
<path id="IR-12" class="st0" d="M409.2,113.5L409.2,113.5l1.3-0.2l1.6,0.7l-0.4,1l-2,0.6l-0.9,0.7l-0.2,0.6l0.2,0.3l0.2,0.4l0.2,1.1
	l-0.2,2.9l-0.6,2.5l-0.1,0.8l0.6,1.3l4,4.5l3.9,3.3l1.9,0.6l3.2,0.6l1.7,0.6l5.2-0.9l0.7-0.2l1.1,0l1.4,0.8l0.8,3.3l-0.9,3.9
	l-1.4,2.6l-0.5,4.6l0.6,7.9l1.1,5.1l0.9,2.4l8,6.6l2.2,2.6l-0.5,2.9l-5.9,10.1l-1.4,3.4l-1,0.8l-7.1,2.7l-3.9,2.3l-4.4,4l-5.4,6.8
	l-12.2,20.5l-3.7,1.9l-8.7-0.2l-3.1,0.6l-0.6,0.3v0.1l-0.3-0.4l-0.8-0.7l-1.9-0.6l-80.8,2.4l-1.8-0.3l-14.4-4.8l-2.3-0.4l-9.3,0.6
	l-3.3-0.6l-6.5-3.6l1.1-1.6l1.5-3.5l0.9-3.6l0.1-3.4l-0.5-1.6l0.1-1.8l1-3.3l1.7-2.7l0.4-2.6l-1.5-2.8l-3.8-5.1l-0.3-1.8l0.2-1.9
	l0.6-2.5l0.5-3.8l0.6-0.6l0.6,0.3l0.4,0.4l0.7,0.3l2,0.1l1.9,1.6l6.2,3.8l2.5,0.9l2.6,0.1l7.6,2.2l2.7,0.1l3.9-1.3l3.4-1.8l5.4-4.9
	l1.1-3.7l-0.4-4.2l-1.1-4.7l0.5-0.2l3.4-0.4l1.6-0.4l2.1-1.2l1.8-0.6l1.1,0.6l1.7-0.2l2.6-0.8l2.4-1.3l1.5-1.3l0.8-1.1l0.4-1.1
	l0.8-1.1l3.5-3.1l1.3-1.6l0.5-3.4l0.8-2.5l1.2-2.3l2.5-2.6l2.8-1.7l3.4-1l6.6-0.1l2.6,0.4l2.4-0.5l4.8-2.3l2.1-2.3l5.7-4.5l5.9-3.4
	l2.9-0.3l12.1,1.7l1.7-0.8l1.1-2.9l0.7-4.6l2.8-6.2l6.3-9.7l1.4-1.2l5.1,6.8L409.2,113.5L409.2,113.5z"/>
<path id="IR-21" class="st0" d="M328.4,127.8L328.4,127.8L328.4,127.8l0,0.6l0.4,1.1l1.2,2.1l7.5,4.5l3.6,3.7l1.4,2.1l-3.4,1
	l-2.8,1.7l-2.5,2.6l-1.2,2.3l-0.8,2.5l-0.5,3.4l-1.3,1.6l-3.5,3.1l-0.8,1.1l-0.4,1.1l-0.8,1.1l-1.5,1.3l-2.4,1.3l-2.6,0.8l-1.7,0.2
	l-1.1-0.6l-1.8,0.6l-2.1,1.2l-1.6,0.4l-3.4,0.4l-0.5,0.2l-3-2.1l-1.5-0.3l-1.1,0.6l-1.8,0.3l-2.6-0.5l-3.9-2.1l-3-0.6l-2.4-1
	l-2.2-0.3l-3.1,2.5l-4.4,5.3l-2.3,0.9l-2.7-0.2l-1.7-0.6l-1-0.6l-1.2-1.4l-2-3.7l-3.5-3.7l-4.6-1.8l-5.2-0.4l-3.7-2.2l-2.2-2.6
	l-5.6-1.2l-1.4-0.6l-1.3-1.2l-0.6-0.9l-2.2-0.9l-5.6-1.1l0-0.8l-0.4-1.1l-5.5-4.2l-1.9-1l-9-7.6l1.8-1.1l2.1-3.7l0.7-3.5l1.4-1.3
	l1.8-0.9l1.2-1.6l0.3-1.1l0-0.1l0,0l1.6,1.1l0.7,0.2l0.5,0.2l1,1.1l0.5,0.4l5.3,2.9l4.9,3.5l2.8,1.3l9.4,1.9l6,1.8l6.3,1.1l6,1.8
	l6.3-0.8l5.6-2.1l5.8-1.4l6-1.1l5.8-1.2l5.8-1.7l5.6-1.7l11.2-2.5l1.5-0.3l13.3-0.8l2.4-0.6l1.6-1.4l-0.1,1.6l-1.9,0.7l-2.4,0.3
	l-1.5,0.5l-0.4,0.2l-0.5-0.1l-0.9-0.3l-0.5,0.1l-0.9,0.4l-0.5,0.1l-2-0.3h-1.7l0.3,0.5l0.5,0.2l1.1-0.1l-0.7,0.2l-0.3,0l0.8,1.1
	l1.4,0.6L328.4,127.8L328.4,127.8z"/>
<path id="IR-27" class="st0" d="M405.4,74.5L405.4,74.5l4.8-0.9l1.4,0.2l0.2,0.1l0.2,3l-0.2,1.2l0.1,1.6l0.4,1.8l0,1l-0.7,2.8
	l0.1,1.9l1.1,1.4l1.6,0.8l1.4,1.1l0.6,2.6l-1.9,2.6l-4,1.4l-0.9,0.1l-1,0.5l-1,0.9l-2.5,1l-2.5,4.4l-1,1l-1.4,1.2l-6.3,9.7l-2.8,6.2
	l-0.7,4.6l-1.1,2.9l-1.7,0.8l-12.1-1.7l-2.9,0.3l-5.9,3.4l-5.7,4.5l-2.1,2.3l-4.8,2.3l-2.4,0.5l-2.6-0.4l-6.6,0.1l-1.4-2.1l-3.6-3.7
	l-7.5-4.5l-1.2-2.1l-0.4-1.1l0-0.6l0,0l5.1,0.4l0.5,0.3l0.6,0.2l4.2-1.2l0.4-0.3l0.2-0.7l0-4.4l-0.2-0.7l-0.5-0.3l-0.6-0.3l0.1-0.6
	l0.8-1.4l-0.8-1.3l-0.5-1.6l-0.8-3.6l-1-2.8l-0.1-0.6l-0.3-3.6l9.2,0.8l0.7,0l0.6-0.3l0.6-0.6l0.6-0.4l0.7,0l0.8,0.1h0.7l1.2-0.4
	l5.7-3.3l0.8-0.1l2.1,0.4l0.8,0l0.5-0.2l0.8-0.9l0.7-0.3l0.4-0.4l1.6-1.1L365,98l0.2-0.3l0.1-0.7l0.5-1.1l0.1-0.6l0-1l0-0.3
	l-0.2-0.3l-0.4-0.4l-0.1-0.2l0-0.9l0.6-1.3l0.1-0.8l0.2-0.7l0.4-0.7l1-1.1l5.1-3.5l1.6-1.8l0.3-0.4l0.2-0.6l0.4-0.2l0.5-0.1l0.4-0.1
	l0.3-0.3l0.4-0.8l0.3-0.3l0.6-0.2l2-0.4l0.4-0.2L380,78l0.7-0.4l1.5-0.5l0.4-0.1l0.7-0.6l0.7-0.4l2.5-1.9l0.8-0.3l2.1-0.1l6.7-1.4h1
	l2.1,0.5l1.3,0.8l0.5,0.2l1.7,0l0.6,0.2l0.9,0.5l0.5,0.2L405.4,74.5L405.4,74.5z"/>
<path id="IR-14" class="st0" d="M286,345L286,345l2.5,0l11.6-3.4h0.1l8.6,3.3l5.1,4.7l4.4,5.3l7.9,20l5.6,10.1l5.4,6.6l1.5,2.6
	l1.2,8.6l1,2.3l5.3,4l6.9,3.5l0,0.8l0.9,3.1l2.8,5.7l0.4,1.5l0.7,1.3l0.8,0.8l1.5,1l7.8,0.7l2,0.8l6.9,17l2,5.9l0,1.1l-1.1,0.8
	l0.2,1.8l10.2,9.9l0.9,2.4l-0.4,4.3l-1.7,6.3l-0.2,1.6l0.2,1.2l2.9,2.3l1.6,2.6L391,488l-0.6,0.9l-0.8,0.5l-1,0.5l-2-0.1l-3.1,0.8
	l-4.6,2.5l-1.3,2.1l-1.1,3.4l-2,1.9l-4.2,1.3l-9-1.3l-3.1,0.7l-1.7,0.7l-1.6-0.6l-2.1-0.3l-9,0.8l-3.5,1.2l-1.5,1.8l-0.5,3l-0.7,2.1
	l0,0.4l0.4,1.1l-0.9,1.5l-3.5,1.9l-10.4-1.8h-0.9l-2.5,0.6l-0.6-0.1l-0.6-0.3l-2.9-2.4l-1.3-0.5l-7.5-0.7l-2.5-2.4l-0.9-1.8
	l-6.8-4.9l-4.3-4.1l-4.5-5.5l-4.6-10.3l-2.5-3l-1.1-0.7l-1.5-0.6l-0.9-1.4l-5-14l-0.8-3.5l-15.2-28.7l-3-2.8l-2.7-1l-2.2-2.3
	l-2.4-3.8l-1.8-4.2l-2.3-2.5l-4.6-1.5l-7.5-0.6l-1.9-0.7l-2.1-4.2l-1.7-1.7l-0.9-2.8v-2v-0.1l3.4-0.8l5.7,0.4l1.4-0.2l9-5.3l0.7-1.5
	l0-2l-0.8-1.4l-0.3-0.9l0.5-0.8l-0.1-0.9l-1.1-3l-0.6-3.3l0.5-0.6l2.8,0.7l3.9,1.9l0.9,0.2l0.8,1l1.3,0.8l3.6,0.9l1.9-0.5l1.7-1
	l0.9-0.9l0.2-0.4l0-1.9l-1-4.9l2.6-0.4l1-0.3l0-1.3l-0.4-2.3l0.3-3.4l2.9-7.2l0.7-4l0.8-2.7l-1-2.7l-2-1.5l-1.5-0.3l-1.3-0.5l-1-1.1
	l-0.8-1.9l0.1-1.2l3.3,0.8l2.5-0.4l4.6-3.1l1-0.4l0.7-0.9l4.6-2.5l0.6,0.1l0.5,1.1l0.3,3.7l1.6,1.4L286,345L286,345z"/>
<path id="IR-04" class="st0" d="M273.4,226.8L273.4,226.8l9.3-0.6l2.3,0.4l14.4,4.8l1.8,0.3l80.8-2.4l1.9,0.6l0.8,0.7l0.3,0.4
	l0.4,27.6l-0.9,2.9l-2.9,5l-1.9,1.4l-2.6,0.3l-3.4,1.8l-1.8,2.3l-1.5,6.8l-1.1,3l-1.3,2.5l-1.9,2.3l-3.6,2l-35.8,12.4l-10.7-2.5
	l-2.5,0.1l-3.3,1.3l-2,1.3l-1.5,1.3l-2.2,1.3l-2.4,0.7l-1.4,0.9l-0.3,1.3l1,12.3l-0.3,2.6l-1.4,5.6l-0.6,4.8l-0.4,1l0.1,2.8l1.5,5.9
	h-0.1l-11.6,3.4l-2.5,0l-7.5-1.7l-1.6-1.4l-0.3-3.7l-0.5-1.1l-0.6-0.1l-4.6,2.5l-0.7,0.9l-1,0.4l-4.6,3.1l-2.5,0.4l-3.3-0.8
	l-0.1,1.2l0.8,1.9l1,1.1l1.3,0.5l1.5,0.3l2,1.5l1,2.7l-0.8,2.7l-0.7,4l-2.9,7.2l-0.3,3.4l0.4,2.3l0,1.3l-1,0.3l-2.6,0.4l-0.7-0.7
	l-4.7-3.4l-3.6-3.9l-1.9-4.9l-0.2-2.6l0.3-1.4l0.1-3.1l-3.1-10.3l-0.8-4.5l0.2-2.1l1.2-0.8l1.4-0.6l-0.1-1.2l-1-1.3l-0.7-1.2
	l0.1-1.2l1.4-0.9l1.1-2.1l-0.6-4.1l-1.8-3.2l-3.9-3l-1.8-1.8l-4.3-3.4l-0.3-3.1l0.2-2.9l-0.7-1.2l-0.3-1.2l-0.5-0.6l-0.9-0.2l-0.3-1
	l-0.3-1.8l-1.3-1.1l-1.5,0.3l-0.8,0.8l-1.4,0.5l-4.4,0.1l-1.3,0.2l-3.8,2.5l-1.5,0.3l-1-0.4l-1.7,0.4l-2.2-0.3l-2.1-1.7l-2.1-1.1
	l-1.5,0.3l-1.1,0.5L203,302l-2.3-0.3l-6.7,3.6l0.9-3l0.7-1.1l-1.4-1.9l-3.4-1.3l-2.9,0.2l-1.8-1l-1.6-4.1l0-0.4l0.2-1l0.5-0.8
	l0.8-0.5l2.7-0.9l1.6-1.2l0.6-4.8l1.9-2.3l5-1.4l0.8-0.5l0.1-0.8l0.2-1l3.4-6.9l-0.1-1.8l0.1-2.2l0.8-1.6l2.8-2.3l5.4-3.2l14.1-3.7
	l2.1-1.3l1.9-1.6l2.1-0.7l1.9,0l0.9-1.6l3.2-7.8l0.4-2.4l-1-0.5l-0.7-1.8l1-8l0.4-1.2l1.3-1.3l3.2-1.4l7.3-0.8l2.6,0.1l11.4-3
	l6.5,3.6L273.4,226.8L273.4,226.8z"/>
<path id="IR-06" class="st0" d="M214,435.5L214,435.5l-0.3,0l-0.3-0.3l-0.3-0.9l-0.2-0.8l-0.3-0.5l0.4-0.3l0.4,0.2l0.6,0.3l0.4,0.2
	l-0.1,0.7l0.1,0.7L214,435.5z M248.6,423L248.6,423l2.2,2.3l2.7,1l3,2.8l15.2,28.7l0.8,3.5l5,14l0.9,1.4l1.5,0.6l1.1,0.7l2.5,3
	l4.6,10.3l4.5,5.5l4.3,4.1l6.8,4.9l-1.5,0.8l-0.5,0.2l-1.6-0.1l-1.7-0.4l-0.5,0l-2.2,0.2l-0.4,0l-0.7,0.3l-0.1,0l-0.2,0.2l-0.5,1.1
	l0,0l-2.6-1.2l-0.7-0.7l-0.1-0.8l0.3-0.5l0.6-0.3l0.7-0.1l0.6,0l0.7-0.1l0.4-0.4l-0.3-0.9l-0.5-0.5l-1.4-0.5l-0.5-0.4l-0.3-0.5
	l-0.5-1.3l-0.2-0.4l-2.5-2.6l-1.1-0.9l-1.2-0.5l-6-1.3l-1.3-0.6l-4-3.7l-1.2-0.8l-1.4-0.6l-1.6-0.2l-2.4,0.3l-0.5-0.2l-0.6-0.4
	l-1.2,0.1l-1.3,0.3l-2.1,0.4l-1.3-0.2L257,488l-0.4-0.1l-0.2-0.3l0-0.4l-0.1-0.3l-0.2-0.2l-1.1-0.1l-1.4-0.4l-0.7-0.8l-0.8-1.3
	l-0.8-0.5l-0.3,1.1l-0.7,0.1l-0.7-2.3l-0.7-1l-0.5-1.4l-1.3-2.1l-0.6-0.5l-0.7-0.7l-0.2-0.8l0.8-2.1l-0.1-1l-0.7-1.1l-1.2-1.1
	l-0.4-0.5l-1.2-1.9l-1.1-1.2l-0.3-0.4l-2.1-5.1l-0.3-1.2l0-4.9l-0.4-1.7l-0.8-1.4l-0.9-1l-1.1-0.7l-1.4-0.3l-1.4-0.1l-0.7-0.2
	l-0.3-0.4l-0.3-0.8l-1.6-2l-0.3-0.7l-0.2-1.1l0.1-1l0.7-0.4l0.7,0.2l0.7,0.6l0.6,0.7l0.3,0.6l0.4-0.3l0-0.3l-0.1-0.3l0.1-0.4
	l0.2-0.3l0.7-0.6l0.2-0.4l0.1-0.8l-0.1-0.9l-0.3-0.6l-0.6,0.2l-0.3-1.1l-0.2-0.4l-0.4-0.4l-0.2,0l-0.3,0.2l-0.3,0.1l-0.1-0.2l0-0.7
	l-0.1-0.3l-0.1-0.2l-0.8-0.1l-2.6,0.2l-0.6,0.1l-0.9,0.5l-0.9-0.1l-0.8-0.7l-0.3-1.1l-0.1-0.9l0.1-0.5l0.3-0.5l0.2-0.5l0.2-0.6
	l0.3-0.3l0.5,0.5l0.1-1.6l0.1-0.3l-0.3-0.1l-0.2-0.2l-0.4-0.8l0.2-1l0-1.5l-0.2-1.5l-0.3-1l-0.4-0.8l-0.7-0.9l-0.5-0.3l0,1.2
	l-0.2-0.4l-1-1.5l-1.8-1.5l-0.3-0.5l-0.2-0.7l-0.5-0.8l-1.1-1.1l-2-0.8l-0.3-0.4l-0.2-0.8l-0.5-0.7l-0.9-1l-0.9-1.3L212,411
	l-0.8-1.2l-0.6-0.6l-1.4-0.9l-1.3-1.4l-0.1-0.2l-0.1-0.5l0-0.7l-0.1-0.4l0.5-0.1l0.1-0.2l-0.2-0.3l-0.4-0.2l0.4-1.3l-0.8-2.2l0.2-1
	l-0.5-0.4l-0.5-0.7l-0.4-0.8l-0.2-0.6l-0.2-0.4l-0.5-0.3l-0.3-0.1h0l2.2-1.1l3.5-0.6l1.9,1l5.2,0.3l4,1.4l1.3,0.9l0.6,0.6v2l0.9,2.8
	l1.7,1.7l2.1,4.2l1.9,0.7l7.5,0.6l4.6,1.5l2.3,2.5l1.8,4.2L248.6,423L248.6,423z"/>
<path id="IR-18" class="st0" d="M220,349.9L220,349.9l1.8-0.1l1,0.1l12.6,11.2l1.2,0l3.9,0.5l1.8-1l1.7-1.5l2.2-0.4l1.2,0.1l0.2,2.6
	l1.9,4.9l3.6,3.9l4.7,3.4l0.7,0.7l1,4.9l0,1.9l-0.2,0.4l-0.9,0.9l-1.7,1l-1.9,0.5l-3.6-0.9l-1.3-0.8l-0.8-1l-0.9-0.2l-3.9-1.9
	l-2.8-0.7l-0.5,0.6l0.6,3.3l1.1,3l0.1,0.9l-0.5,0.8l0.3,0.9l0.8,1.4l0,2l-0.7,1.5l-9,5.3l-1.4,0.2l-5.7-0.4l-3.4,0.8v0.1l-0.6-0.6
	l-1.3-0.9l-4-1.4l-0.6-6.2l-0.6-2.6l-1.1-1.2l-0.2-2l2-4.6l-0.6-2.1l-1.9-1.4l-3.2-1.7l-2.6-2.6l-1.4-1.8l-5.8,0.8l-0.2-1l0.3-1.3
	l0.1-1.2l0.2-0.6l-0.1-1.6l-1.5-5.6l0-2.3l0.6-1.3l0.9-1.1l1.1-0.9l2.6-1.1l4.1-3.6l2.3-3l2.4,1.5L220,349.9L220,349.9z"/>
<path class="st1" d="M222.1,440.1"/>
</svg>
