<?xml version="1.0" encoding="utf-8"?>
<!-- Generator: Adobe Illustrator 24.2.1, SVG Export Plug-In . SVG Version: 6.00 Build 0)  -->
<svg version="1.1" id="Layer_1" xmlns="http://www.w3.org/2000/svg" xmlns:xlink="http://www.w3.org/1999/xlink" x="0px" y="0px"
	 viewBox="0 0 131.7 132.2" style="enable-background:new 0 0 131.7 132.2;" xml:space="preserve">
<style type="text/css">
	.st0{fill:#E19A60;}
	.st1{opacity:0.1;fill:#010101;}
	.st2{fill:#E8B87E;}
	.st3{opacity:0.5;fill:#FFFFFF;}
	.st4{fill:#596874;}
	.st5{fill:none;stroke:#596874;stroke-width:2;stroke-linecap:round;stroke-miterlimit:10;}
</style>
<g>
	<polygon class="st0" points="1.9,29.2 129.9,29.2 129.9,99.2 63.8,130.2 1.9,99.2 	"/>
	<polygon class="st1" points="63.9,29.2 63.9,130.2 129.9,99.2 129.9,29.2 	"/>
	<polygon class="st2" points="63.8,2.2 1.9,29.4 63.8,60.4 129.9,29.4 	"/>
	<polygon class="st3" points="33.8,45.2 96.9,15.8 87,11.7 24.9,40.8 	"/>
	<polygon class="st3" points="33.8,66.2 24.8,61.6 24.9,40.8 33.8,45.2 	"/>
	<polygon class="st3" points="53.9,114.2 37.9,106.5 37.9,94.8 53.9,102.6 	"/>
	<g>
		<polygon class="st4" points="6.2,82.2 6.2,83.9 22.7,91.5 22.7,89.8 		"/>
		<polygon class="st4" points="6.2,89 22.7,96.6 22.7,94.9 6.2,87.3 		"/>
		<polygon class="st4" points="6.2,94 22.7,101.6 22.7,99.9 6.2,92.3 		"/>
	</g>
	<g>
		<g>
			<line class="st5" x1="98.9" y1="75.1" x2="106.9" y2="80.1"/>
			<line class="st5" x1="98.9" y1="75.1" x2="90.9" y2="84.7"/>
			<line class="st5" x1="98.9" y1="75.1" x2="98.9" y2="98.5"/>
		</g>
	</g>
</g>
</svg>
