<svg version="1.1" id="Layer_1" xmlns="http://www.w3.org/2000/svg" xmlns:xlink="http://www.w3.org/1999/xlink" x="0px" y="0px"
	 viewBox="0 0 24 24" style="enable-background:new 0 0 24 24;" xml:space="preserve">
<style type="text/css">
	.st0{fill:#FFD700;stroke:#000000;stroke-width:1.9;stroke-miterlimit:10;}
</style>
<path class="st0" d="M12.9,3.2l2.2,4.7c0.1,0.3,0.4,0.4,0.6,0.5l5.1,0.8c0.7,0.1,1,0.9,0.5,1.4l-3.7,3.7c-0.2,0.2-0.3,0.5-0.2,0.7
	l0.9,5.2c0.1,0.7-0.6,1.2-1.2,0.9l-4.5-2.4c-0.2-0.1-0.5-0.1-0.8,0l-4.5,2.4c-0.6,0.3-1.3-0.2-1.2-0.9L7,15c0-0.3,0-0.5-0.2-0.7
	L3,10.6c-0.5-0.5-0.2-1.3,0.5-1.4l5.1-0.8c0.3,0,0.5-0.2,0.6-0.5l2.2-4.7C11.7,2.6,12.6,2.6,12.9,3.2z"/>
</svg>
